<svg width="22" height="18" viewBox="0 0 22 18" fill="none" xmlns="http://www.w3.org/2000/svg">
<path d="M4.25 1H17.75C19.483 1 20.8992 2.35645 20.9949 4.06558L21 4.25V13.75C21 15.483 19.6435 16.8992 17.9344 16.9949L17.75 17H4.25C2.51697 17 1.10075 15.6435 1.00514 13.9344L1 13.75V4.25C1 2.51697 2.35645 1.10075 4.06558 1.00514L4.25 1H17.75H4.25ZM19.5 6.373L11.3493 10.6637C11.1619 10.7623 10.9431 10.7764 10.7468 10.706L10.6507 10.6637L2.5 6.374V13.75C2.5 14.6682 3.20711 15.4212 4.10647 15.4942L4.25 15.5H17.75C18.6682 15.5 19.4212 14.7929 19.4942 13.8935L19.5 13.75V6.373ZM17.75 2.5H4.25C3.33183 2.5 2.57881 3.20711 2.5058 4.10647L2.5 4.25V4.679L11 9.15246L19.5 4.678V4.25C19.5 3.33183 18.7929 2.57881 17.8935 2.5058L17.75 2.5Z" fill="white"/>
<path d="M4.25 1H17.75C19.483 1 20.8992 2.35645 20.9949 4.06558L21 4.25V13.75C21 15.483 19.6435 16.8992 17.9344 16.9949L17.75 17H4.25C2.51697 17 1.10075 15.6435 1.00514 13.9344L1 13.75V4.25C1 2.51697 2.35645 1.10075 4.06558 1.00514L4.25 1ZM4.25 1H17.75H4.25ZM19.5 6.373L11.3493 10.6637C11.1619 10.7623 10.9431 10.7764 10.7468 10.706L10.6507 10.6637L2.5 6.374V13.75C2.5 14.6682 3.20711 15.4212 4.10647 15.4942L4.25 15.5H17.75C18.6682 15.5 19.4212 14.7929 19.4942 13.8935L19.5 13.75V6.373ZM17.75 2.5H4.25C3.33183 2.5 2.57881 3.20711 2.5058 4.10647L2.5 4.25V4.679L11 9.15246L19.5 4.678V4.25C19.5 3.33183 18.7929 2.57881 17.8935 2.5058L17.75 2.5Z" stroke="white"/>
</svg>
