<svg width="15" height="21" viewBox="0 0 15 21" fill="none" xmlns="http://www.w3.org/2000/svg">
<path d="M7.06609 1L7.06609 13.5M7.06609 13.5V16.5C7.06609 18.1569 5.72295 19.5 4.06609 19.5C2.40924 19.5 1.06609 18.1569 1.06609 16.5C1.06609 14.8431 2.40924 13.5 4.06609 13.5H7.06609ZM7.06609 13.5L4.08276 13.5C2.4167 13.5 1.06609 12.1494 1.06609 10.4833C1.06609 8.83036 2.39636 7.48523 4.04924 7.46687L7.06609 7.43335M10.0661 13.5C8.40924 13.5 7.06609 12.1402 7.06609 10.4833C7.06609 8.8395 8.38901 7.48532 10.0328 7.46705C11.7025 7.4485 13.0661 8.81365 13.0661 10.4835C13.0661 12.1404 11.7229 13.5 10.0661 13.5ZM3.99195 1.5H10.1572C11.7742 1.5 13.0951 2.79157 13.1315 4.40817C13.1688 6.07055 11.8363 7.44083 10.1736 7.44996L4.00839 7.48383C2.37552 7.49281 1.03703 6.1909 1.00075 4.55841C0.963466 2.8804 2.31353 1.5 3.99195 1.5Z" stroke="white" stroke-width="2"/>
</svg>
