<svg width="19" height="20" viewBox="0 0 19 20" fill="none" xmlns="http://www.w3.org/2000/svg">
<path d="M7.37543 16.3288C7.9022 16.1629 8.19473 15.6013 8.0288 15.0746C7.86288 14.5478 7.30134 14.2553 6.77457 14.4212L7.37543 16.3288ZM2.25394 11.6078L1.28672 11.3538L0.778842 13.2883L1.74606 13.5422L2.25394 11.6078ZM12.075 18.875V19.875H14.075V18.875H12.075ZM12.575 11.875L12.4681 10.8807C12.0847 10.9219 11.7591 11.18 11.6314 11.5439C11.5037 11.9078 11.5966 12.3127 11.8703 12.5845L12.575 11.875ZM17.075 6.6525H18.075L18.075 6.64927L17.075 6.6525ZM15.9086 3.84375L14.9764 3.48172C14.8331 3.85072 14.921 4.26953 15.2005 4.54984L15.9086 3.84375ZM15.8386 1.02012L16.7517 0.612352C16.6312 0.342508 16.3975 0.139788 16.1133 0.0586001L15.8386 1.02012ZM12.7971 2.12875L12.5449 3.09642C12.816 3.16709 13.1043 3.12077 13.3397 2.96876L12.7971 2.12875ZM7.35286 2.12875L6.81044 2.96886C7.04577 3.1208 7.33403 3.16707 7.60509 3.09642L7.35286 2.12875ZM4.31136 1.02012L4.0364 0.0586693C3.75235 0.139905 3.51875 0.342589 3.39828 0.612352L4.31136 1.02012ZM4.24136 3.84375L4.94942 4.54991C5.22898 4.2696 5.31685 3.85075 5.17353 3.48172L4.24136 3.84375ZM3.07499 6.67525H4.07499L4.07498 6.67269L3.07499 6.67525ZM7.575 11.875L8.28091 12.5833C8.55232 12.3128 8.6453 11.911 8.52029 11.5488C8.39529 11.1866 8.07429 10.9276 7.69382 10.8821L7.575 11.875ZM7.075 13.975H8.075C8.075 13.9506 8.0741 13.9261 8.07231 13.9018L7.075 13.975ZM6.075 18.875V19.875H8.075V18.875H6.075ZM6.77457 14.4212C5.97038 14.6745 5.50209 14.6333 5.2242 14.5416C4.94926 14.4509 4.72428 14.2663 4.48699 13.957C4.36597 13.7992 4.25209 13.6228 4.12677 13.4199C4.01032 13.2314 3.86836 12.9935 3.72596 12.7835C3.45281 12.3807 3.00561 11.8051 2.25394 11.6078L1.74606 13.5422C1.74692 13.5424 1.75108 13.5435 1.76086 13.5491C1.77162 13.5554 1.79137 13.5686 1.82029 13.595C1.88303 13.6524 1.96306 13.7473 2.07064 13.906C2.18133 14.0692 2.28388 14.2421 2.42523 14.471C2.55769 14.6854 2.7149 14.9328 2.90013 15.1743C3.27534 15.6634 3.80352 16.1788 4.5974 16.4408C5.38832 16.7019 6.3045 16.6661 7.37543 16.3288L6.77457 14.4212ZM14.075 13.8875C14.075 13.1348 14.1549 12.0349 13.2797 11.1655L11.8703 12.5845C11.9629 12.6765 12.008 12.7631 12.0375 12.9264C12.077 13.1446 12.075 13.4067 12.075 13.8875H14.075ZM12.6819 12.8693C13.9568 12.7322 15.3563 12.4211 16.4214 11.4316C17.5175 10.4133 18.075 8.85755 18.075 6.6525H16.075C16.075 8.5372 15.6035 9.46149 15.0601 9.96636C14.4858 10.5 13.6353 10.7553 12.4681 10.8807L12.6819 12.8693ZM18.075 6.64927C18.0707 5.33229 17.5467 4.07024 16.6167 3.13766L15.2005 4.54984C15.7582 5.10911 16.0724 5.86594 16.075 6.65572L18.075 6.64927ZM16.8408 4.20578C17.0641 3.63064 17.1713 3.01694 17.156 2.40015L15.1566 2.44971C15.1653 2.80224 15.1041 3.15301 14.9764 3.48172L16.8408 4.20578ZM17.156 2.40015C17.1407 1.78335 17.0033 1.17571 16.7517 0.612352L14.9255 1.4279C15.0693 1.74988 15.1479 2.09718 15.1566 2.44971L17.156 2.40015ZM15.8386 1.02012C16.1133 0.0586001 16.1124 0.0583326 16.1115 0.0580649C16.1111 0.0579746 16.1102 0.057707 16.1095 0.0575272C16.1083 0.0571678 16.107 0.0568069 16.1057 0.0564444C16.1031 0.0557194 16.1004 0.0549885 16.0976 0.0542524C16.0922 0.0527804 16.0865 0.0512885 16.0805 0.0497844C16.0686 0.046776 16.0557 0.0437211 16.0418 0.0406811C16.014 0.0345985 15.9824 0.028591 15.9469 0.0231357C15.8759 0.012211 15.7899 0.00359297 15.6886 0.000888526C15.4855 -0.00453317 15.2252 0.0139088 14.905 0.0823359C14.2659 0.218872 13.3935 0.553058 12.2545 1.28874L13.3397 2.96876C14.3235 2.33331 14.9718 2.11319 15.3228 2.03819C15.4976 2.00085 15.5996 1.99923 15.6352 2.00018C15.6532 2.00066 15.6556 2.00183 15.643 1.99991C15.6368 1.99895 15.627 1.99725 15.6138 1.99434C15.6071 1.99289 15.5996 1.99114 15.5913 1.98904C15.5872 1.98799 15.5828 1.98686 15.5782 1.98563C15.5759 1.98501 15.5736 1.98437 15.5712 1.98371C15.57 1.98338 15.5688 1.98304 15.5676 1.9827C15.567 1.98253 15.5661 1.98226 15.5657 1.98218C15.5648 1.98191 15.5639 1.98165 15.8386 1.02012ZM13.0493 1.16108C11.099 0.652716 9.05095 0.652716 7.10063 1.16108L7.60509 3.09642C9.22463 2.67427 10.9253 2.67427 12.5449 3.09642L13.0493 1.16108ZM7.89528 1.28864C6.75597 0.553039 5.88363 0.218879 5.24474 0.0823453C4.92453 0.0139172 4.66428 -0.00453544 4.46125 0.000888884C4.35998 0.00359464 4.27396 0.0122174 4.20288 0.023153C4.16739 0.0286137 4.13577 0.0346282 4.108 0.0407193C4.09411 0.0437637 4.08121 0.0468233 4.06927 0.0498369C4.0633 0.0513435 4.05758 0.0528381 4.0521 0.0543129C4.04936 0.0550503 4.04668 0.0557827 4.04407 0.0565091C4.04276 0.0568723 4.04146 0.057234 4.04019 0.0575941C4.03955 0.0577743 4.0386 0.0580424 4.03828 0.0581329C4.03734 0.0584012 4.0364 0.0586693 4.31136 1.02012C4.58633 1.98158 4.58539 1.98184 4.58446 1.98211C4.58416 1.9822 4.58323 1.98246 4.58262 1.98263C4.5814 1.98297 4.58019 1.98331 4.579 1.98364C4.5766 1.98431 4.57426 1.98495 4.57197 1.98557C4.56739 1.9868 4.56302 1.98794 4.55885 1.98899C4.55052 1.99109 4.54302 1.99285 4.53638 1.9943C4.52309 1.99722 4.51327 1.99893 4.50702 1.99989C4.49444 2.00183 4.49671 2.00066 4.51467 2.00018C4.55011 1.99923 4.65205 2.00085 4.82677 2.03818C5.17772 2.11318 5.82613 2.33333 6.81044 2.96886L7.89528 1.28864ZM3.39828 0.612352C3.14669 1.17571 3.00928 1.78335 2.99399 2.40015L4.99337 2.44971C5.00211 2.09718 5.08065 1.74988 5.22445 1.4279L3.39828 0.612352ZM2.99399 2.40015C2.9787 3.01694 3.08583 3.63064 3.3092 4.20578L5.17353 3.48172C5.04587 3.153 4.98463 2.80224 4.99337 2.44971L2.99399 2.40015ZM3.53331 3.13759C3.06936 3.60279 2.70173 4.15495 2.45149 4.76243L4.30074 5.52419C4.45079 5.15993 4.67123 4.82885 4.94942 4.54991L3.53331 3.13759ZM2.45149 4.76243C2.20125 5.36992 2.07331 6.0208 2.07499 6.67781L4.07498 6.67269C4.07398 6.27873 4.15069 5.88845 4.30074 5.52419L2.45149 4.76243ZM2.07499 6.67525C2.07499 8.86823 2.63403 10.4114 3.73129 11.4232C4.79368 12.4028 6.1895 12.7163 7.45618 12.8679L7.69382 10.8821C6.51838 10.7414 5.66419 10.485 5.0871 9.95288C4.54489 9.45289 4.07499 8.54227 4.07499 6.67525H2.07499ZM6.86909 11.1667C6.41568 11.6186 6.21551 12.1832 6.12725 12.6728C6.03887 13.163 6.04876 13.6544 6.07769 14.0482L8.07231 13.9018C8.04874 13.5808 8.05007 13.2798 8.09553 13.0276C8.14112 12.7747 8.21719 12.6468 8.28091 12.5833L6.86909 11.1667ZM6.075 13.975V18.875H8.075V13.975H6.075ZM14.075 18.875V13.8875H12.075V18.875H14.075Z" fill="white"/>
</svg>
