<svg width="24" height="24" viewBox="0 0 24 24" fill="none" xmlns="http://www.w3.org/2000/svg">
<path d="M17.7451 10.7507C18.3359 11.3415 18.8473 12.0581 19.237 12.82C19.4257 13.1888 19.2796 13.6407 18.9108 13.8293C18.5421 14.0179 18.0902 13.8719 17.9016 13.5031C17.5812 12.8767 17.161 12.288 16.6844 11.8114C14.1218 9.24874 9.96689 9.24874 7.40424 11.8114C6.90642 12.3092 6.50201 12.869 6.19065 13.4845C6.00369 13.8542 5.5525 14.0022 5.18288 13.8153C4.81326 13.6283 4.66518 13.1771 4.85214 12.8075C5.23494 12.0507 5.73298 11.3613 6.34358 10.7507C9.49202 7.6023 14.5967 7.6023 17.7451 10.7507ZM15.6432 13.8196C16.0908 14.2672 16.4591 14.8169 16.7153 15.4017C16.8816 15.7811 16.7088 16.2234 16.3294 16.3897C15.95 16.5559 15.5077 16.3832 15.3415 16.0038C15.1584 15.586 14.8948 15.1924 14.5826 14.8802C13.1798 13.4775 10.9056 13.4775 9.50281 14.8802C9.19229 15.1908 8.94019 15.5689 8.75561 15.9908C8.58957 16.3703 8.14733 16.5433 7.76786 16.3772C7.38838 16.2112 7.21536 15.769 7.3814 15.3895C7.63885 14.8011 7.99524 14.2665 8.44215 13.8196C10.4307 11.8311 13.6547 11.8311 15.6432 13.8196ZM20.4482 8.27885C20.9573 8.7879 21.4379 9.36948 21.8564 9.97573C22.0916 10.3166 22.006 10.7837 21.6651 11.019C21.3242 11.2543 20.8571 11.1687 20.6218 10.8278C20.2538 10.2946 19.831 9.78291 19.3876 9.33951C15.3075 5.25946 8.69246 5.25946 4.61241 9.33951C4.19053 9.76139 3.77211 10.273 3.39038 10.8233C3.15427 11.1636 2.68698 11.2481 2.34664 11.012C2.00631 10.7759 1.92181 10.3086 2.15791 9.96827C2.58807 9.34821 3.06249 8.76811 3.55175 8.27885C8.21759 3.61301 15.7824 3.61301 20.4482 8.27885ZM13.0608 16.4393C13.6466 17.0251 13.6466 17.975 13.0608 18.5608C12.4749 19.1467 11.5251 19.1467 10.9392 18.5608C10.3533 17.975 10.3533 17.0251 10.9392 16.4393C11.5251 15.8534 12.4749 15.8534 13.0608 16.4393Z" fill="white"/>
</svg>
