<svg width="24" height="24" viewBox="0 0 24 24" fill="none" xmlns="http://www.w3.org/2000/svg">
<path d="M14.2981 2.98439L21.0156 9.7019C22.2848 10.9711 22.2848 13.0289 21.0156 14.2981L14.2981 21.0156C13.0289 22.2848 10.9711 22.2848 9.7019 21.0156L2.98439 14.2981C1.71518 13.0289 1.71518 10.9711 2.98439 9.7019L9.7019 2.98439C10.9711 1.71518 13.0289 1.71518 14.2981 2.98439ZM10.7626 4.04505L4.04505 10.7626C3.36163 11.446 3.36163 12.554 4.04505 13.2374L10.7626 19.955C11.446 20.6384 12.554 20.6384 13.2374 19.955L19.955 13.2374C20.6384 12.554 20.6384 11.446 19.955 10.7626L13.2374 4.04505C12.554 3.36163 11.446 3.36163 10.7626 4.04505ZM12.4577 7.30445L12.5303 7.22033C12.7966 6.95406 13.2133 6.92986 13.5069 7.14771L13.591 7.22033L15.591 9.22033C15.8573 9.4866 15.8815 9.90326 15.6636 10.1969L15.591 10.281L13.591 12.281C13.2981 12.5739 12.8232 12.5739 12.5303 12.281C12.2641 12.0147 12.2399 11.5981 12.4577 11.3044L12.5303 11.2203L13.2495 10.4995L11.75 10.5C11.1028 10.5 10.5705 10.9919 10.5065 11.6222L10.5 11.75V15C10.5 15.4142 10.1642 15.75 9.75 15.75C9.3703 15.75 9.05651 15.4678 9.00685 15.1018L9 15V11.75C9 10.2875 10.1417 9.0916 11.5825 9.00502L11.75 9L13.2485 8.99949L12.5303 8.28099C12.2641 8.01472 12.2399 7.59806 12.4577 7.30445L12.5303 7.22033L12.4577 7.30445Z" fill="white"/>
</svg>
