<svg width="28" height="28" viewBox="0 0 28 28" fill="none" xmlns="http://www.w3.org/2000/svg">
<path d="M20.5 22C20.5 22.275 20.276 22.5 20 22.5H8C7.724 22.5 7.5 22.275 7.5 22V6C7.5 5.725 7.724 5.5 8 5.5H14V10C14 11.104 14.896 12 16 12H20.5V22ZM15.5 6.621L19.378 10.5H16C15.724 10.5 15.5 10.275 15.5 10V6.621ZM21.414 10.414L15.585 4.586C15.559 4.56 15.527 4.54 15.5 4.516C15.429 4.452 15.359 4.389 15.281 4.336C15.241 4.309 15.195 4.291 15.153 4.268C15.082 4.228 15.012 4.184 14.937 4.152C14.74 4.07 14.528 4.029 14.313 4.014C14.266 4.011 14.22 4 14.172 4H14.171H14H8C6.896 4 6 4.896 6 6V22C6 23.104 6.896 24 8 24H20C21.104 24 22 23.104 22 22V12V11.828C22 11.298 21.789 10.789 21.414 10.414Z" fill="white" stroke="white" stroke-width="0.5"/>
</svg>
