<svg width="28" height="28" viewBox="0 0 28 28" fill="none" xmlns="http://www.w3.org/2000/svg">
<path d="M23.9691 5L24.8173 4.94377C24.7947 4.6028 24.5701 4.30852 24.2471 4.19675C23.9242 4.08498 23.5658 4.17747 23.3372 4.43151L23.9691 5ZM23.3928 9.22701C23.3928 8.75756 23.0122 8.37701 22.5428 8.37701C22.0733 8.37701 21.6928 8.75756 21.6928 9.22701H23.3928ZM14 10.5V11.35H14.85V10.5H14ZM5.42637 5L6.2224 4.70195C6.10379 4.38518 5.80866 4.16888 5.47087 4.15117C5.13309 4.13346 4.81695 4.31771 4.66587 4.62034L5.42637 5ZM11 18L11.6015 18.6006C11.8095 18.3922 11.8949 18.0911 11.8272 17.8046C11.7595 17.5181 11.5484 17.287 11.2692 17.1937L11 18ZM4 20.7143V19.8643C3.62554 19.8643 3.2952 20.1093 3.18656 20.4677C3.07792 20.826 3.21658 21.2133 3.528 21.4212L4 20.7143ZM21.4515 6.39054L20.821 6.96063L21.1273 7.29934L21.5788 7.23096L21.4515 6.39054ZM23.121 5.05623C23.1942 6.16056 23.1249 6.81344 22.9539 7.29542C22.7892 7.75964 22.5011 8.14843 21.9547 8.672L23.1309 9.89943C23.7631 9.29356 24.2642 8.68653 24.5561 7.86378C24.8416 7.05878 24.8962 6.13353 24.8173 4.94377L23.121 5.05623ZM23.3928 10.2678V9.28571H21.6928V10.2678H23.3928ZM23.3928 9.28571V9.22701H21.6928V9.28571H23.3928ZM13.15 9.5V10.5H14.85V9.5H13.15ZM18.3223 4.15C15.4139 4.15 13.15 6.67566 13.15 9.5H14.85C14.85 7.52563 16.4393 5.85 18.3223 5.85V4.15ZM21.6928 10.2678C21.6928 16.3735 16.5622 21.65 10.5 21.65V23.35C17.5343 23.35 23.3928 17.2789 23.3928 10.2678H21.6928ZM4.63034 5.29805C5.4315 7.43778 8.41718 11.35 14 11.35V9.65C9.31298 9.65 6.84761 6.37175 6.2224 4.70195L4.63034 5.29805ZM4.66587 4.62034C3.15943 7.63787 2.88579 10.6152 3.95213 13.167C5.01849 15.7189 7.35547 17.6794 10.7308 18.8063L11.2692 17.1937C8.22588 16.1777 6.34967 14.4954 5.52069 12.5116C4.6917 10.5277 4.84057 8.07642 6.18686 5.37966L4.66587 4.62034ZM10.3985 17.3994C9.56862 18.2306 7.14851 19.8643 4 19.8643V21.5643C7.69805 21.5643 10.5296 19.6742 11.6015 18.6006L10.3985 17.3994ZM22.082 5.82046C21.1556 4.79588 19.8138 4.15 18.3223 4.15V5.85C19.3129 5.85 20.203 6.2771 20.821 6.96063L22.082 5.82046ZM21.5788 7.23096C22.6975 7.06153 23.7856 6.47489 24.6011 5.56849L23.3372 4.43151C22.7747 5.05674 22.0387 5.44192 21.3242 5.55013L21.5788 7.23096ZM3.528 21.4212C5.85158 22.9726 8.08973 23.35 10.5 23.35V21.65C8.30053 21.65 6.42752 21.3131 4.472 20.0074L3.528 21.4212Z" fill="white"/>
</svg>
