<svg width="28" height="28" viewBox="0 0 28 28" fill="none" xmlns="http://www.w3.org/2000/svg">
<path d="M14.0661 5L14.0661 17.5M14.0661 17.5V20.5C14.0661 22.1569 12.7229 23.5 11.0661 23.5C9.40924 23.5 8.06609 22.1569 8.06609 20.5C8.06609 18.8431 9.40924 17.5 11.0661 17.5H14.0661ZM14.0661 17.5L11.0828 17.5C9.4167 17.5 8.06609 16.1494 8.06609 14.4833C8.06609 12.8304 9.39636 11.4852 11.0492 11.4669L14.0661 11.4333M17.0661 17.5C15.4092 17.5 14.0661 16.1402 14.0661 14.4833C14.0661 12.8395 15.389 11.4853 17.0328 11.4671C18.7025 11.4485 20.0661 12.8136 20.0661 14.4835C20.0661 16.1404 18.7229 17.5 17.0661 17.5ZM10.992 5.5H17.1572C18.7742 5.5 20.0951 6.79157 20.1315 8.40817C20.1688 10.0705 18.8363 11.4408 17.1736 11.45L11.0084 11.4838C9.37552 11.4928 8.03703 10.1909 8.00075 8.55841C7.96347 6.8804 9.31353 5.5 10.992 5.5Z" stroke="white" stroke-width="1.7"/>
</svg>
