<svg width="28" height="28" viewBox="0 0 28 28" fill="none" xmlns="http://www.w3.org/2000/svg">
<path d="M7.25 6H20.75C22.483 6 23.8992 7.35645 23.9949 9.06558L24 9.25V18.75C24 20.483 22.6435 21.8992 20.9344 21.9949L20.75 22H7.25C5.51697 22 4.10075 20.6435 4.00514 18.9344L4 18.75V9.25C4 7.51697 5.35645 6.10075 7.06558 6.00514L7.25 6H20.75H7.25ZM22.5 11.373L14.3493 15.6637C14.1619 15.7623 13.9431 15.7764 13.7468 15.706L13.6507 15.6637L5.5 11.374V18.75C5.5 19.6682 6.20711 20.4212 7.10647 20.4942L7.25 20.5H20.75C21.6682 20.5 22.4212 19.7929 22.4942 18.8935L22.5 18.75V11.373ZM20.75 7.5H7.25C6.33183 7.5 5.57881 8.20711 5.5058 9.10647L5.5 9.25V9.679L14 14.1525L22.5 9.678V9.25C22.5 8.33183 21.7929 7.57881 20.8935 7.5058L20.75 7.5Z" fill="white"/>
<path d="M7.25 6H20.75C22.483 6 23.8992 7.35645 23.9949 9.06558L24 9.25V18.75C24 20.483 22.6435 21.8992 20.9344 21.9949L20.75 22H7.25C5.51697 22 4.10075 20.6435 4.00514 18.9344L4 18.75V9.25C4 7.51697 5.35645 6.10075 7.06558 6.00514L7.25 6ZM7.25 6H20.75H7.25ZM22.5 11.373L14.3493 15.6637C14.1619 15.7623 13.9431 15.7764 13.7468 15.706L13.6507 15.6637L5.5 11.374V18.75C5.5 19.6682 6.20711 20.4212 7.10647 20.4942L7.25 20.5H20.75C21.6682 20.5 22.4212 19.7929 22.4942 18.8935L22.5 18.75V11.373ZM20.75 7.5H7.25C6.33183 7.5 5.57881 8.20711 5.5058 9.10647L5.5 9.25V9.679L14 14.1525L22.5 9.678V9.25C22.5 8.33183 21.7929 7.57881 20.8935 7.5058L20.75 7.5Z" stroke="white" stroke-width="0.4"/>
</svg>
