<svg width="28" height="28" viewBox="0 0 28 28" fill="none" xmlns="http://www.w3.org/2000/svg">
<path d="M11.3754 20.3288C11.9022 20.1629 12.1947 19.6013 12.0288 19.0746C11.8629 18.5478 11.3013 18.2553 10.7746 18.4212L11.3754 20.3288ZM6.25394 15.6078L5.28672 15.3538L4.77884 17.2883L5.74606 17.5422L6.25394 15.6078ZM16.075 22.875V23.875H18.075V22.875H16.075ZM16.575 15.875L16.4681 14.8807C16.0847 14.9219 15.7591 15.18 15.6314 15.5439C15.5037 15.9078 15.5966 16.3127 15.8703 16.5845L16.575 15.875ZM21.075 10.6525L22.075 10.6525L22.075 10.6493L21.075 10.6525ZM19.9086 7.84375L18.9764 7.48172C18.8331 7.85072 18.921 8.26953 19.2005 8.54984L19.9086 7.84375ZM19.8386 5.02012L20.7517 4.61235C20.6312 4.34251 20.3975 4.13979 20.1133 4.0586L19.8386 5.02012ZM16.7971 6.12875L16.5449 7.09642C16.816 7.16709 17.1043 7.12077 17.3397 6.96876L16.7971 6.12875ZM11.3529 6.12875L10.8104 6.96886C11.0458 7.1208 11.334 7.16707 11.6051 7.09642L11.3529 6.12875ZM8.31136 5.02012L8.0364 4.05867C7.75235 4.1399 7.51875 4.34259 7.39828 4.61235L8.31136 5.02012ZM8.24136 7.84375L8.94942 8.5499C9.22898 8.2696 9.31685 7.85075 9.17353 7.48172L8.24136 7.84375ZM7.07499 10.6752L8.07499 10.6752L8.07498 10.6727L7.07499 10.6752ZM11.575 15.875L12.2809 16.5833C12.5523 16.3128 12.6453 15.911 12.5203 15.5488C12.3953 15.1866 12.0743 14.9276 11.6938 14.8821L11.575 15.875ZM11.075 17.975H12.075C12.075 17.9506 12.0741 17.9261 12.0723 17.9018L11.075 17.975ZM10.075 22.875V23.875H12.075V22.875H10.075ZM10.7746 18.4212C9.97038 18.6745 9.50209 18.6333 9.2242 18.5416C8.94926 18.4509 8.72428 18.2663 8.48699 17.957C8.36597 17.7992 8.25209 17.6228 8.12677 17.4199C8.01032 17.2314 7.86836 16.9935 7.72596 16.7835C7.45281 16.3807 7.00561 15.8051 6.25394 15.6078L5.74606 17.5422C5.74692 17.5424 5.75108 17.5435 5.76086 17.5491C5.77162 17.5554 5.79137 17.5686 5.82029 17.595C5.88303 17.6524 5.96306 17.7473 6.07064 17.906C6.18133 18.0692 6.28388 18.2421 6.42523 18.471C6.55769 18.6854 6.7149 18.9328 6.90013 19.1743C7.27534 19.6634 7.80352 20.1788 8.5974 20.4408C9.38832 20.7019 10.3045 20.6661 11.3754 20.3288L10.7746 18.4212ZM18.075 17.8875C18.075 17.1348 18.1549 16.0349 17.2797 15.1655L15.8703 16.5845C15.9629 16.6765 16.008 16.7631 16.0375 16.9264C16.077 17.1446 16.075 17.4067 16.075 17.8875H18.075ZM16.6819 16.8693C17.9568 16.7322 19.3563 16.4211 20.4214 15.4316C21.5175 14.4133 22.075 12.8575 22.075 10.6525H20.075C20.075 12.5372 19.6035 13.4615 19.0601 13.9664C18.4858 14.5 17.6353 14.7553 16.4681 14.8807L16.6819 16.8693ZM22.075 10.6493C22.0707 9.33229 21.5467 8.07024 20.6167 7.13766L19.2005 8.54984C19.7582 9.10911 20.0724 9.86594 20.075 10.6557L22.075 10.6493ZM20.8408 8.20578C21.0641 7.63064 21.1713 7.01694 21.156 6.40015L19.1566 6.44971C19.1653 6.80224 19.1041 7.15301 18.9764 7.48172L20.8408 8.20578ZM21.156 6.40015C21.1407 5.78335 21.0033 5.17571 20.7517 4.61235L18.9255 5.4279C19.0693 5.74988 19.1479 6.09718 19.1566 6.44971L21.156 6.40015ZM19.8386 5.02012C20.1133 4.0586 20.1124 4.05833 20.1115 4.05806C20.1111 4.05797 20.1102 4.05771 20.1095 4.05753C20.1083 4.05717 20.107 4.05681 20.1057 4.05644C20.1031 4.05572 20.1004 4.05499 20.0976 4.05425C20.0922 4.05278 20.0865 4.05129 20.0805 4.04978C20.0686 4.04678 20.0557 4.04372 20.0418 4.04068C20.014 4.0346 19.9824 4.02859 19.9469 4.02314C19.8759 4.01221 19.7899 4.00359 19.6886 4.00089C19.4855 3.99547 19.2252 4.01391 18.905 4.08234C18.2659 4.21887 17.3935 4.55306 16.2545 5.28874L17.3397 6.96876C18.3235 6.33331 18.9718 6.11319 19.3228 6.03819C19.4976 6.00085 19.5996 5.99923 19.6352 6.00018C19.6532 6.00066 19.6556 6.00183 19.643 5.99991C19.6368 5.99895 19.627 5.99725 19.6138 5.99434C19.6071 5.99289 19.5996 5.99114 19.5913 5.98904C19.5872 5.98799 19.5828 5.98686 19.5782 5.98563C19.5759 5.98501 19.5736 5.98437 19.5712 5.98371C19.57 5.98338 19.5688 5.98304 19.5676 5.9827C19.567 5.98253 19.5661 5.98226 19.5657 5.98218C19.5648 5.98191 19.5639 5.98165 19.8386 5.02012ZM17.0493 5.16108C15.099 4.65272 13.051 4.65272 11.1006 5.16108L11.6051 7.09642C13.2246 6.67427 14.9253 6.67427 16.5449 7.09642L17.0493 5.16108ZM11.8953 5.28864C10.756 4.55304 9.88363 4.21888 9.24474 4.08235C8.92453 4.01392 8.66428 3.99546 8.46125 4.00089C8.35998 4.00359 8.27396 4.01222 8.20288 4.02315C8.16739 4.02861 8.13577 4.03463 8.108 4.04072C8.09411 4.04376 8.08121 4.04682 8.06927 4.04984C8.0633 4.05134 8.05758 4.05284 8.0521 4.05431C8.04936 4.05505 8.04668 4.05578 8.04407 4.05651C8.04276 4.05687 8.04146 4.05723 8.04019 4.05759C8.03955 4.05777 8.0386 4.05804 8.03828 4.05813C8.03734 4.0584 8.0364 4.05867 8.31136 5.02012C8.58633 5.98158 8.58539 5.98184 8.58446 5.98211C8.58416 5.9822 8.58323 5.98246 8.58262 5.98263C8.5814 5.98297 8.58019 5.98331 8.579 5.98364C8.5766 5.98431 8.57426 5.98495 8.57197 5.98557C8.56739 5.9868 8.56302 5.98794 8.55885 5.98899C8.55052 5.99109 8.54302 5.99285 8.53638 5.9943C8.52309 5.99722 8.51327 5.99893 8.50702 5.99989C8.49444 6.00183 8.49671 6.00066 8.51467 6.00018C8.55011 5.99923 8.65205 6.00085 8.82677 6.03818C9.17772 6.11318 9.82613 6.33333 10.8104 6.96886L11.8953 5.28864ZM7.39828 4.61235C7.14669 5.17571 7.00928 5.78335 6.99399 6.40015L8.99337 6.44971C9.00211 6.09718 9.08065 5.74988 9.22445 5.4279L7.39828 4.61235ZM6.99399 6.40015C6.9787 7.01694 7.08583 7.63064 7.3092 8.20578L9.17353 7.48172C9.04587 7.153 8.98463 6.80224 8.99337 6.44971L6.99399 6.40015ZM7.53331 7.13759C7.06936 7.60279 6.70173 8.15495 6.45149 8.76243L8.30074 9.52419C8.45079 9.15993 8.67123 8.82885 8.94942 8.5499L7.53331 7.13759ZM6.45149 8.76243C6.20125 9.36992 6.07331 10.0208 6.07499 10.6778L8.07498 10.6727C8.07398 10.2787 8.15069 9.88845 8.30074 9.52419L6.45149 8.76243ZM6.07499 10.6752C6.07499 12.8682 6.63403 14.4114 7.73129 15.4232C8.79368 16.4028 10.1895 16.7163 11.4562 16.8679L11.6938 14.8821C10.5184 14.7414 9.66419 14.485 9.0871 13.9529C8.54489 13.4529 8.07499 12.5423 8.07499 10.6752H6.07499ZM10.8691 15.1667C10.4157 15.6186 10.2155 16.1832 10.1273 16.6728C10.0389 17.163 10.0488 17.6544 10.0777 18.0482L12.0723 17.9018C12.0487 17.5808 12.0501 17.2798 12.0955 17.0276C12.1411 16.7747 12.2172 16.6468 12.2809 16.5833L10.8691 15.1667ZM10.075 17.975V22.875H12.075V17.975H10.075ZM18.075 22.875V17.8875H16.075V22.875H18.075Z" fill="white"/>
</svg>
