<svg width="24" height="24" viewBox="0 0 24 24" fill="none" xmlns="http://www.w3.org/2000/svg">
<path d="M9.20318 3.99883L9.25023 3.99757L9.29598 3.99878C9.31842 4.00008 9.3409 4.00241 9.36336 4.00581L9.37944 4.00962C9.46485 4.02334 9.54973 4.05384 9.63062 4.10177L9.68249 4.13531L14.7528 7.70057L19.8198 4.13866C20.2876 3.80986 20.9213 4.10539 20.9942 4.64773L21.0012 4.75222V15.3848C21.0012 15.5941 20.9138 15.7922 20.7631 15.9329L20.6825 15.9983L15.1825 19.8647C14.9156 20.0523 14.5946 20.0366 14.3547 19.8878L9.24983 16.2966L4.18015 19.8613C3.71244 20.1901 3.0787 19.8946 3.00576 19.3523L2.99883 19.2478V8.61525C2.99883 8.40593 3.08618 8.20784 3.23695 8.06708L3.31751 8.00168L8.81751 4.13531C8.88151 4.09032 8.94862 4.05702 9.01698 4.03444L9.13945 4.00643L9.20318 3.99883ZM19.5012 6.19623L15.5012 9.00814V17.8071L19.5012 14.9952V6.19623ZM8.49883 6.19288L4.49883 9.00479V17.8038L8.49883 14.9919V6.19288ZM10.0012 6.19288V14.9919L14.0012 17.8038V9.00479L10.0012 6.19288Z" fill="white"/>
</svg>
