<svg width="22" height="20" viewBox="0 0 22 20" fill="none" xmlns="http://www.w3.org/2000/svg">
<path d="M20.9691 1L21.9669 0.933846C21.9403 0.532703 21.6761 0.186489 21.2962 0.0549994C20.9163 -0.0764898 20.4946 0.0323145 20.2257 0.331193L20.9691 1ZM20.5428 5.22701C20.5428 4.67472 20.0951 4.22701 19.5428 4.22701C18.9905 4.22701 18.5428 4.67472 18.5428 5.22701H20.5428ZM11 6.5V7.5H12V6.5H11ZM2.42637 1L3.36287 0.649352C3.22334 0.27668 2.87612 0.0222076 2.47873 0.00137168C2.08133 -0.0194641 1.70941 0.197302 1.53166 0.553339L2.42637 1ZM8 14L8.70766 14.7066C8.95238 14.4615 9.05284 14.1072 8.97321 13.7701C8.89358 13.433 8.6452 13.1611 8.31667 13.0515L8 14ZM1 16.7143V15.7143C0.559465 15.7143 0.170822 16.0026 0.0430113 16.4242C-0.0847992 16.8457 0.0783335 17.3013 0.444707 17.5459L1 16.7143ZM18.4515 2.39054L17.7098 3.06123L18.0701 3.45972L18.6013 3.37927L18.4515 2.39054ZM19.9713 1.06615C20.044 2.16294 19.9734 2.79179 19.8125 3.24527C19.6591 3.67785 19.3897 4.04739 18.8509 4.56369L20.2346 6.00774C20.8745 5.3946 21.3944 4.76832 21.6974 3.91392C21.9931 3.08043 22.0463 2.13114 21.9669 0.933846L19.9713 1.06615ZM20.5428 6.26785V5.28571H18.5428V6.26785H20.5428ZM20.5428 5.28571V5.22701H18.5428V5.28571H20.5428ZM10 5.5V6.5H12V5.5H10ZM15.3223 0C12.3235 0 10 2.60066 10 5.5H12C12 3.60062 13.5298 2 15.3223 2V0ZM18.5428 6.26785C18.5428 12.2937 13.4765 17.5 7.5 17.5V19.5C14.6201 19.5 20.5428 13.3588 20.5428 6.26785H18.5428ZM1.48986 1.35065C2.30654 3.53184 5.33814 7.5 11 7.5V5.5C6.39202 5.5 3.97256 2.27768 3.36287 0.649352L1.48986 1.35065ZM1.53166 0.553339C0.0110971 3.59917 -0.273553 6.62288 0.813732 9.22485C1.90104 11.8269 4.27867 13.8119 7.68333 14.9485L8.31667 13.0515C5.30268 12.0452 3.46713 10.3874 2.6591 8.45372C1.85104 6.51998 1.9889 4.11511 3.32107 1.44666L1.53166 0.553339ZM7.29234 13.2934C6.48383 14.1032 4.10002 15.7143 1 15.7143V17.7143C4.74654 17.7143 7.61438 15.8015 8.70766 14.7066L7.29234 13.2934ZM19.1933 1.71986C18.2396 0.665185 16.858 0 15.3223 0V2C16.2687 2 17.1189 2.4078 17.7098 3.06123L19.1933 1.71986ZM18.6013 3.37927C19.7557 3.20443 20.8748 2.60002 21.7126 1.66881L20.2257 0.331193C19.6856 0.931615 18.9805 1.29902 18.3018 1.40182L18.6013 3.37927ZM0.444707 17.5459C2.80076 19.1191 5.07113 19.5 7.5 19.5V17.5C5.31913 17.5 3.47834 17.1666 1.55529 15.8826L0.444707 17.5459Z" fill="white"/>
</svg>
