<svg width="216" height="158" viewBox="0 0 216 158" fill="none" xmlns="http://www.w3.org/2000/svg">
<path d="M72.65 126.626C72.5101 126.866 72.3267 127.062 72.0874 127.18Z" fill="white"/>
<path d="M77.6938 87.168C78.2813 87.168 78.7475 86.6986 78.7475 86.1112C78.7475 85.5175 78.2813 85.0451 77.6938 85.0451C77.1126 85.0451 76.6401 85.5175 76.6401 86.1112C76.6401 86.6986 77.1126 87.168 77.6938 87.168Z" fill="white"/>
<path d="M125.516 64.0037H113.951V43.6169H125.516V64.0037ZM125.516 73.6857C125.317 75.8864 124.572 77.7171 123.045 78.749L113.948 84.1853V65.0449H125.516V73.6857ZM112.916 64.0037H102.236V43.6169H112.916V64.0037ZM112.916 84.8038L108.713 87.3153H108.642C108.331 87.5546 107.955 87.7069 107.535 87.7069C107.11 87.7069 106.721 87.5453 106.413 87.2997L102.233 84.8038V65.0449H112.916V84.8038ZM97.9124 56.5408H101.201V64.0037H97.9124V56.5408ZM101.201 84.1853L92.1062 78.749C90.5863 77.7171 89.8341 75.8864 89.6352 73.6857V65.0449H101.201V84.1853ZM93.6355 51.4838H89.6352V43.6169H93.6355V51.4838ZM94.6301 46.5697L95.0932 46.0786L94.8041 45.544L95.4196 45.6093L95.7895 44.9596L96.15 45.5968L96.7717 45.544L96.4795 46.0786L96.9519 46.5697L96.352 46.6847V47.3467L95.7895 46.924L95.2238 47.3467V46.6847L94.6301 46.5697ZM97.4586 54.7878C97.4275 54.5889 97.1664 54.536 97.0483 54.536C96.6971 54.536 96.5572 55.1204 96.2526 55.139C96.0381 55.1483 95.8827 55.1732 95.8827 54.9028C95.8827 54.7008 96.3334 54.5516 96.5075 54.3806C94.0395 54.3806 93.996 55.5058 93.6106 55.5058C92.9641 55.5058 94.1483 54.3153 94.4933 53.9703C93.996 53.8895 93.6976 53.2741 93.1537 52.9633C93.4055 52.5996 93.5547 52.7519 93.8841 53.013C93.8841 52.7519 94.0737 52.4535 94.6487 52.4535C95.7522 52.4535 95.4382 53.5197 95.6247 53.5197C95.7957 53.5197 95.6061 52.4535 96.3458 52.4535C97.443 52.4535 98.8075 55.2634 97.5674 55.2634C97.039 55.2634 97.4648 54.8624 97.4586 54.7878V54.7878ZM94.8041 60.7867L95.4196 60.8519L95.7895 60.2085L96.15 60.8395L96.7717 60.7867L96.4795 61.3244L96.9519 61.8093L96.352 61.9274V62.5925L95.7895 62.1667L95.2238 62.5925V61.9274L94.6301 61.8093L95.0932 61.3244L94.8041 60.7867ZM90.2972 53.1964L90.9065 53.2648L91.2794 52.6089L91.6493 53.2524L92.2647 53.1964L91.9695 53.731L92.4388 54.219L91.8451 54.3402V54.9992L91.2794 54.5795L90.7168 54.9992V54.3402L90.117 54.219L90.5863 53.731L90.2972 53.1964ZM89.6352 56.5408H93.6355V64.0037H89.6352V56.5408ZM98.8137 54.219L99.2769 53.731L98.9878 53.1964L99.6032 53.2648L99.97 52.6089L100.334 53.2524L100.955 53.1964L100.666 53.731L101.136 54.219L100.536 54.3402V54.9992L99.97 54.5795L99.4136 54.9992V54.3402L98.8137 54.219ZM101.201 51.4838H97.9124V43.6169H101.201V51.4838ZM126.589 42.5912V42.5725H88.5597V42.5912H88.5566L88.5939 73.2972C88.5939 76.2594 89.8528 78.8516 91.5809 79.6504L106.202 88.3845C106.525 88.7513 106.998 88.9844 107.535 88.9844C107.999 88.9844 108.409 88.8072 108.72 88.5244L123.571 79.6504C125.305 78.8516 126.561 76.2594 126.561 73.2972L126.595 42.5912H126.589Z" fill="white"/>
<path d="M100.586 72.0805C100.53 71.9531 99.1342 72.5406 99.5382 72.5064C99.5755 72.093 100.346 71.2538 100.691 70.9429C100.623 70.4549 100.004 70.8994 99.3517 71.2382C101.518 68.1362 100.129 69.4106 98.9197 69.6282C100.856 67.5488 100.346 67.5829 98.9197 68.2326C100.042 67.3405 100.275 66.2837 100.113 65.9791C99.0627 67.3778 98.0929 67.1602 98.0929 68.4564C98.0929 69.3111 97.7821 70.7129 97.3469 71.1885C96.7844 71.7977 97.2195 68.8977 95.7307 68.8977C95.252 68.8977 94.1362 68.8604 93.7911 69.4386C94.0989 69.4386 94.5495 70.2094 94.5495 70.514C94.5495 70.8248 94.8355 71.6703 94.3289 71.6703C93.8129 71.6703 93.2348 70.601 93.2348 70.0882C93.2348 69.5784 93.1913 69.6965 93.1913 68.9692C93.1913 67.7353 91.1958 66.0133 90.3814 66.0133C90.3814 66.865 91.4942 67.067 91.4942 68.1611C91.0248 68.1611 90.3472 67.2721 90.3472 67.8161C90.3472 68.3662 91.0559 68.4688 91.0559 68.9475C91.0559 69.4292 90.2416 68.7796 90.2416 69.2894C90.2416 69.74 90.6922 69.6592 90.8041 70.1037C90.4716 70.0136 90.1732 70.0509 90.1141 70.2249C90.0613 70.3679 90.2105 70.5637 90.4591 70.7005C90.3472 70.8031 90.2416 71.061 90.2416 71.7759C90.2416 74.2066 91.7677 75.3317 92.8804 75.3317C93.6761 75.3317 93.5549 74.7785 93.6513 74.5081C93.6855 74.9214 94.074 74.3091 94.074 75.024C94.074 75.77 93.3094 75.4436 93.3094 76.0932C93.3094 76.9573 94.5247 76.0653 94.5247 77.0195C94.5247 78.182 94.3755 78.1602 94.3755 78.6047C94.3755 78.9093 95.653 78.1726 95.5753 78.0421C95.883 78.1571 95.8643 79.0585 96.4331 79.0367C96.7968 79.0212 96.8838 78.1105 97.1729 78.0359C96.9988 78.0794 98.3198 78.8969 98.3198 78.4835C98.3198 77.3552 97.8598 77.8307 97.8598 77.0568C97.8598 76.345 99.4263 76.4818 99.1808 76.1119C98.9663 75.8104 98.8264 75.9969 98.6679 75.4654C98.6897 75.5617 97.4309 73.6626 98.9259 74.6386C100.496 75.6674 100.67 72.2546 100.586 72.0805Z" fill="white"/>
<path d="M141.151 80.1113C141.844 80.1113 142.4 79.614 142.4 79.0079C142.4 78.3987 141.844 77.9076 141.151 77.9076C140.457 77.9076 139.898 78.3987 139.898 79.0079C139.898 79.614 140.457 80.1113 141.151 80.1113Z" fill="white"/>
<path d="M136.095 83.1113C136.782 83.1113 137.342 82.6202 137.342 82.011C137.342 81.4049 136.782 80.9107 136.095 80.9107C135.402 80.9107 134.843 81.4049 134.843 82.011C134.843 82.6202 135.402 83.1113 136.095 83.1113Z" fill="white"/>
<path d="M75.9968 90.0488C76.6806 90.0488 77.2463 89.5484 77.2463 88.9454C77.2463 88.3362 76.6806 87.8451 75.9968 87.8451C75.3036 87.8451 74.7441 88.3362 74.7441 88.9454C74.7441 89.5484 75.3036 90.0488 75.9968 90.0488Z" fill="white"/>
<path d="M79.8906 90.3809C80.5837 90.3809 81.1401 89.8867 81.1401 89.2743C81.1401 88.6682 80.5837 88.1802 79.8906 88.1802C79.2037 88.1802 78.6411 88.6682 78.6411 89.2743C78.6411 89.8867 79.2037 90.3809 79.8906 90.3809Z" fill="white"/>
<path d="M188.084 37.9424C189.936 40.143 190.337 43.6895 189.01 46.2227C188.282 46.1574 188.413 45.2218 188.282 44.681C186.955 42.2162 185.892 39.0769 187.086 36.2702C187.95 36.4069 187.623 37.4792 188.084 37.9424Z" fill="white"/>
<path d="M29.3333 40.9489C28.9323 42.5527 28.9323 44.7533 29.3333 46.2235C29.0007 46.5592 29.0628 45.8909 28.7365 45.9562C26.1473 44.0913 27.3378 40.4174 26.6851 37.8127C26.8094 37.6106 27.1357 37.5423 27.3378 37.679C28.5376 38.4778 29.0628 39.6123 29.3333 40.9489Z" fill="white"/>
<path d="M193.787 41.1505C194.182 41.884 193.454 42.6176 192.923 42.9563C192.323 43.0869 191.664 42.7481 191.263 42.2166C191.07 41.4799 191.459 40.8148 192.065 40.4822C192.724 40.4169 193.392 40.5475 193.787 41.1505Z" fill="white"/>
<path d="M25.2847 44.0888C25.1511 44.6824 24.9584 45.2916 24.4238 45.5527C24.0259 45.5527 23.426 45.5527 23.1618 45.2264C22.7609 44.8876 22.6987 44.2877 22.8945 43.8215C23.1618 43.3552 23.6995 43.2868 24.1627 43.2216C24.6258 43.4205 25.0858 43.5573 25.2847 44.0888Z" fill="white"/>
<path d="M196.373 45.2247C196.504 45.6194 196.504 45.8867 196.373 46.2939C195.913 46.8938 195.245 47.158 194.583 46.8938C194.12 46.6234 193.983 46.1571 193.85 45.7562C193.983 45.2247 194.515 44.7584 194.981 44.5533C195.578 44.5533 195.973 44.889 196.373 45.2247Z" fill="white"/>
<path d="M192.59 45.287C193.122 45.5512 192.724 46.2195 192.656 46.6235C192.326 46.9561 191.863 47.4876 191.263 47.2887C190.937 46.9561 190.536 46.9561 190.405 46.4899C190.405 45.8154 190.673 45.1533 191.332 44.9544C191.863 44.8208 192.196 45.085 192.59 45.287Z" fill="white"/>
<path d="M187.751 46.2889C187.751 47.0225 187.817 47.958 186.956 48.0917C186.157 48.359 185.625 47.6876 185.43 47.153C185.361 46.4879 185.756 45.8227 186.424 45.5523C186.956 45.5523 187.419 45.8911 187.751 46.2889Z" fill="white"/>
<path d="M32.5131 46.6209C32.712 47.2829 32.053 47.6901 31.6583 48.0196C31.1859 48.1564 30.5891 47.7585 30.3311 47.2829C29.8649 46.8229 30.4647 46.4189 30.5891 46.0241C31.2573 45.418 32.2489 45.8874 32.5131 46.6209Z" fill="white"/>
<path d="M28.5372 46.8277C28.5372 47.3561 28.273 47.8938 27.8036 48.0959C27.2721 48.2948 26.7499 47.8938 26.4764 47.4866C26.1469 46.8277 26.5448 46.2247 27.0794 45.9543C27.8036 45.687 28.273 46.3615 28.5372 46.8277Z" fill="white"/>
<path d="M171.704 47.095C172.363 48.4968 172.894 50.1628 173.031 51.9034C172.764 53.1746 173.233 54.8469 172.298 55.7109C171.371 55.3784 171.309 54.2408 170.706 53.644C169.513 51.3066 170.582 48.562 170.97 46.2962C171.505 46.0941 171.505 46.7593 171.704 47.095Z" fill="white"/>
<path d="M25.4149 47.8882C25.617 48.6902 25.0202 49.0911 24.5571 49.5605C23.7676 49.7594 23.2299 49.1626 22.8942 48.6218C22.8289 47.9566 23.2299 47.2883 23.7676 47.0242C24.4234 46.9558 25.0855 47.2883 25.4149 47.8882Z" fill="white"/>
<path d="M182.183 49.8313C183.04 51.7709 183.109 54.1082 182.512 56.2436L182.111 56.5762C181.185 54.7765 179.858 53.1074 179.395 51.171C179.395 49.7661 179.659 48.4979 180.193 47.3603C180.66 47.0277 180.918 47.4287 181.123 47.8265C181.185 48.5632 181.517 49.4335 182.183 49.8313Z" fill="white"/>
<path d="M190.535 48.6277C190.47 49.296 190.206 50.0295 189.544 50.2284C188.882 50.3683 188.213 50.1631 188.014 49.4296C187.819 48.7582 188.213 48.1646 188.745 47.8289C189.472 47.4248 190.206 48.0993 190.535 48.6277Z" fill="white"/>
<path d="M28.5994 50.7006C28.5994 51.2352 28.1394 51.832 27.6079 51.9687C27.0764 52.3728 26.6817 51.7014 26.2092 51.4963C26.0134 50.9617 25.886 50.4954 26.2092 49.9639C26.4144 49.563 26.8775 49.563 27.2722 49.4262C27.8721 49.7619 28.4689 50.0323 28.5994 50.7006Z" fill="white"/>
<path d="M31.52 50.3668C31.7842 51.0381 31.06 51.3707 30.7865 51.7002C29.997 51.9706 29.6022 51.3707 29.2603 50.9014C29.1298 50.2331 29.5308 49.829 29.997 49.4312C30.7865 49.2292 31.1874 49.7638 31.52 50.3668Z" fill="white"/>
<path d="M192.399 50.1628C192.328 51.0362 190.997 51.9003 190.87 52.7706C190.139 54.5733 188.548 55.9099 186.758 56.5098C186.363 56.8423 185.825 57.3148 185.231 57.377C185.095 56.0435 186.294 54.8406 187.025 53.6409C188.411 51.835 190.338 50.6974 192.399 50.1628Z" fill="white"/>
<path d="M27.2732 52.9709C28.271 54.1085 28.7963 55.1063 29.9929 56.104C30.0613 56.3744 29.8593 56.7754 29.5329 56.7754C26.2817 56.5734 24.0873 53.2351 22.499 50.9009C22.7011 50.1642 23.562 50.7641 24.0283 50.6988C25.1472 51.566 26.4154 51.8333 27.2732 52.9709Z" fill="white"/>
<path d="M193.325 53.9037C193.188 56.7788 191.802 59.7161 189.207 61.1148C188.479 61.3852 187.684 62.1156 186.953 61.6525C188.352 58.7774 190.475 56.4431 192.793 53.9037H193.325Z" fill="white"/>
<path d="M180.59 55.8423C180.789 56.8431 180.258 57.4461 179.462 57.7818C178.732 57.8502 178.272 57.2441 177.936 56.7064C177.874 56.0443 178.272 55.4475 178.869 55.2424C179.067 55.0435 179.394 55.0435 179.664 55.0435C180.065 55.1802 180.258 55.5128 180.59 55.8423Z" fill="white"/>
<path d="M23.6313 56.4419C24.8901 57.3122 26.0215 58.5119 27.2119 59.5812C26.351 60.1841 25.2848 59.6464 24.2902 59.6464C22.0399 58.8445 20.5168 56.905 18.1919 56.2398C18.2572 55.5063 19.1181 55.7767 19.5844 55.5778C21.0421 55.441 22.2388 56.1124 23.6313 56.4419Z" fill="white"/>
<path d="M94.649 36.6725C90.9254 35.2055 88.4823 39.0752 84.6996 38.6121C84.2365 38.8731 84.3701 39.3456 84.1059 39.6813C83.9039 39.8802 83.5744 39.7435 83.3724 39.6129C83.1735 38.0091 82.642 36.5389 82.4462 35.0003C82.0514 34.3383 82.2472 33.4027 81.9146 32.7313C79.798 26.9221 87.0867 31.3326 88.5445 27.926C89.8095 24.9888 86.0952 24.65 84.9669 22.5861V21.7127C83.9039 20.6466 82.7787 20.3109 82.1105 18.9091C82.5767 17.2369 82.7787 15.4341 82.3125 13.7619C82.2472 13.3609 81.983 12.8294 81.3831 13.0283C80.1243 14.7658 79.1981 16.1707 78.0014 17.8399C76.7426 16.9043 75.5459 15.7014 74.0882 14.8995C73.0904 14.7658 72.1642 13.7619 71.039 14.1659C70.8432 14.5638 71.039 14.8995 71.2379 15.1637C71.3032 17.7715 72.6335 19.8478 74.4829 21.7127L74.6881 22.7135C73.4914 25.455 73.824 28.5912 73.4914 31.5315C70.5075 39.1436 65.6711 46.4914 59.1035 51.7691C55.327 56.0398 50.8139 60.18 50.2202 66.0607C50.0181 66.9963 50.3507 68.1339 49.6172 68.8022C47.4383 67.9971 45.2408 66.931 43.4567 65.5292C40.4075 63.3876 36.0312 63.6549 34.0357 59.7852C33.24 58.2435 34.2408 56.7081 34.9682 55.5767C37.2154 53.4382 36.889 49.6276 35.6986 47.026C35.4344 46.9576 35.3629 47.2933 35.1671 47.3586C34.9682 51.3029 31.8444 54.0381 33.0442 58.3803C33.3084 59.6516 33.9704 60.4504 34.2999 61.6502C33.8337 61.5196 33.1809 61.5196 32.78 61.3176C31.3222 61.1155 29.8583 60.5157 28.3415 60.7208C25.2923 62.1195 21.1086 60.3851 18.6563 63.1918C18.2553 63.254 17.7238 63.3224 17.8574 63.9223C19.3152 63.9223 20.7046 64.3232 22.1654 64.2579C24.4904 64.6558 26.0196 62.7194 27.6048 61.8522H28.0058C28.6678 61.187 29.793 61.5818 30.6602 61.4543C34.8376 61.9206 38.0826 63.9223 41.5296 65.9923V66.2596C40.2024 66.8657 38.6794 67.2636 37.3522 67.9971C35.8291 69.1347 34.1041 70.6018 33.641 72.4761C32.578 74.139 33.9704 75.6091 34.6356 77.0141C34.704 77.6823 34.7724 78.478 35.3629 78.7515C37.4796 76.4794 35.4935 73.6758 35.8291 71.068C36.3607 69.0632 38.2163 68.1339 40.1402 67.6024C43.9167 65.9923 46.6426 69.0632 49.6825 70.8007C49.6172 73.8779 50.0181 76.8151 49.3561 79.8177C48.4236 80.1534 47.2394 80.3523 46.2417 80.287C40.9981 80.6849 36.889 83.5569 32.177 85.1669C30.0603 85.8973 27.5395 85.829 25.4166 86.6309C27.0733 87.0971 28.7953 86.5003 30.5265 86.432C37.0196 85.4964 41.9927 80.4859 49.0204 81.3531L49.1572 81.5552C48.3584 83.2243 47.3016 84.6323 46.0427 85.8973C45.8376 85.1669 45.7754 84.5608 45.1165 84.1567C44.5788 83.8925 43.9882 84.1567 43.5873 84.6945C43.3883 85.0301 43.3883 85.4249 43.5873 85.6984C43.9167 86.3045 44.4482 86.4319 45.0481 86.6309C44.9145 87.2339 44.1778 87.5012 43.7893 88.0358C41.9306 91.1751 38.1541 89.9007 35.9628 92.1075C35.6302 92.58 34.4367 92.8411 34.9682 93.5777C37.4796 93.8482 39.9351 93.1768 41.7938 91.8402C44.2524 89.105 46.8384 86.5003 49.2877 83.8925C49.6825 86.0279 49.0919 88.2347 47.8331 89.9722C47.2394 89.6365 46.7732 89.1703 46.0427 88.9683C45.3745 89.105 44.9145 89.7702 44.8523 90.3079C45.1165 90.771 45.3745 91.3087 45.8376 91.6413C43.5872 93.242 40.7401 93.3757 38.1541 94.1123C33.3084 94.7153 28.5994 95.1132 23.6916 95.1816C21.3759 95.0448 18.7184 95.8498 16.5333 95.1816C14.0064 95.6447 11.2991 94.8521 9.24458 96.2477C8.97417 96.5834 9.29742 96.916 9.29742 97.2516C12.3528 99.2564 16.5333 97.6526 19.9835 98.2556H46.1049C48.0289 98.1903 49.9467 98.1188 51.479 97.2516C54.8607 95.3152 56.7132 91.8402 58.4414 88.4336C59.1035 87.2339 59.5697 85.829 59.837 84.4272C60.4897 82.1613 62.5536 80.5512 64.807 80.3523C65.1396 83.8242 64.4713 87.2991 63.6819 90.5037C63.2809 92.6422 61.8853 94.7153 62.7494 96.9812C62.9483 98.0536 64.0828 98.0536 64.9345 98.1903C72.9661 98.0536 80.9853 97.7179 89.4738 98.3178C91.0031 98.582 92.321 99.0513 93.9807 98.986C94.1175 98.7871 94.5775 98.7187 94.3786 98.3178C94.189 97.5842 93.6513 96.6487 92.7903 96.4497C92.6535 96.0488 92.063 96.1824 91.864 95.9182C87.6182 93.5125 82.5083 94.7806 77.5383 94.8521C74.9554 95.1132 72.3662 95.5794 70.1749 94.1123C69.1803 92.9126 69.9107 89.105 69.9107 89.105C69.9107 87.5913 73.5567 77.0824 74.0229 76.209C74.1503 75.2082 74.5544 74.2757 74.4238 73.1381C74.9554 71.8047 74.8248 70.0672 74.8248 68.6001C75.0921 66.4586 76.1489 64.4569 76.8731 62.3899C77.2741 61.386 77.6067 60.3167 78.0014 59.3159C78.3962 58.0508 78.5298 56.8448 79.3286 55.8409C81.4888 57.2147 83.6055 57.1774 84.6499 59.6298L85.5575 65.1935C85.5575 65.5292 85.8279 66.1913 86.291 65.7965C88.013 64.6558 87.4815 62.1195 87.4815 60.3851C87.8762 58.3088 86.4247 57.3142 85.8279 55.5083C85.3648 55.1757 84.6001 53.5781 84.6001 53.5781C84.3328 52.111 81.1189 51.0978 81.8463 49.295C82.2472 47.7626 82.642 46.3577 84.1059 45.4905C84.3142 45.6366 84.4105 45.8014 84.4354 45.9599L85.2311 45.4097L85.3119 39.8212C87.4597 39.8118 90.6674 40.0885 92.8587 40.0885C93.4492 40.2905 93.9155 40.7536 94.5775 40.822L95.109 40.0885L100.48 39.041C98.2048 39.2928 96.8154 36.6725 94.649 36.6725Z" fill="white"/>
<path d="M100.488 39.043C100.65 39.0243 100.812 38.9963 100.982 38.9466L100.488 39.043Z" fill="white"/>
<path d="M42.7278 57.6434C42.7931 58.4422 42.3268 58.9116 41.7301 59.1758C41.1986 58.98 40.8038 58.9116 40.4743 58.377C40.2039 57.6434 40.8629 57.1119 41.4006 56.8415C41.9321 56.9783 42.5942 57.0467 42.7278 57.6434Z" fill="white"/>
<path d="M38.4209 57.6453C38.8157 58.0462 38.8778 58.7145 38.6789 59.1776C38.2189 59.5848 37.4823 59.9111 37.0937 59.3859C36.6928 58.9818 36.2887 58.5156 36.6244 57.9809C37.0937 57.5147 37.8832 57.1138 38.4209 57.6453Z" fill="white"/>
<path d="M130.726 58.3776C130.745 58.4058 130.764 58.4433 130.776 58.4746Z" fill="white"/>
<path d="M181.252 59.5153C181.516 60.252 180.919 60.7866 180.397 61.0508C179.729 60.8519 178.868 60.7213 178.868 59.8479C178.933 59.3164 179.393 58.9838 179.859 58.8471C180.456 58.6481 180.987 59.1206 181.252 59.5153Z" fill="white"/>
<path d="M184.762 59.3802C184.964 59.7159 185.431 60.2505 184.899 60.58C184.632 60.782 184.433 60.8442 184.24 61.1115C183.504 61.2483 182.845 60.9841 182.646 60.3158C182.509 59.5792 183.109 59.2466 183.64 58.914C184.103 58.7772 184.433 59.1129 184.762 59.3802Z" fill="white"/>
<path d="M21.7666 60.1819C21.5024 60.9838 20.8404 61.3195 19.9856 61.0522C19.7774 60.8439 19.5815 60.5175 19.4541 60.1819C19.5132 59.7187 19.6499 59.2494 20.1814 59.0443C20.9771 59.1126 21.5739 59.4483 21.7666 60.1819Z" fill="white"/>
<path d="M44.1219 61.3158C44.0504 61.8473 43.4567 62.3197 42.9936 62.5839C42.3284 62.6523 41.8622 62.1146 41.5327 61.6515C41.5327 61.1137 41.7969 60.4517 42.3284 60.3149C43.0557 60.0445 43.8514 60.5822 44.1219 61.3158Z" fill="white"/>
<path d="M40.2037 60.8486C40.4057 61.0537 40.5984 61.5852 40.4057 61.924C40.0048 62.2535 39.408 62.8565 38.7459 62.4586C38.345 62.1229 37.8819 61.8525 38.0186 61.1843C38.2859 60.917 38.6092 60.516 39.0132 60.3886C39.5447 60.2549 39.8089 60.5875 40.2037 60.8486Z" fill="white"/>
<path d="M194.91 61.6518C194.91 62.1864 194.385 62.721 194.055 62.9261C193.518 63.1189 192.921 62.9883 192.592 62.5842C192.194 62.4537 192.324 61.9191 192.324 61.5865C192.657 61.1172 193.129 60.8499 193.583 60.7193C194.183 60.8499 194.584 61.2539 194.91 61.6518Z" fill="white"/>
<path d="M199.157 62.253C198.954 62.8529 198.491 63.3906 197.901 63.459C197.497 63.3906 196.766 63.2538 196.903 62.6508C196.903 62.1877 197.167 61.7215 197.497 61.5878C198.165 61.249 198.954 61.5878 199.157 62.253Z" fill="white"/>
<path d="M29.3347 63.1898C29.4653 63.9886 29.2011 64.5232 28.539 64.7906C28.0759 65.0579 27.6065 64.7222 27.274 64.4611C26.9445 64.1223 26.6865 63.5846 26.9445 63.1245C27.075 62.5247 27.6749 62.6583 28.0759 62.3879C28.6758 62.4563 29.0021 62.7236 29.3347 63.1898Z" fill="white"/>
<path d="M32.5801 63.7858C32.7821 64.3204 32.1853 64.5194 32.0486 64.9234C31.7253 65.1223 31.2529 65.3244 30.8581 65.0571C30.395 64.6561 29.8666 64.0531 30.3266 63.4532C30.8581 62.4524 32.2506 62.987 32.5801 63.7858Z" fill="white"/>
<path d="M190.998 63.4551C191.063 64.1234 190.472 64.5927 190.078 64.9906C189.475 65.1274 188.881 64.7264 188.744 64.1887C188.676 63.6541 189.008 63.2562 189.475 62.9236C190.078 62.8553 190.668 62.9236 190.998 63.4551" fill="white"/>
<path d="M196.442 64.522C196.299 65.125 196.376 65.7995 195.708 66.1943C195.177 66.331 194.518 66.2595 194.12 65.9239C193.722 65.5975 193.65 64.9914 193.849 64.522C194.182 63.9905 194.782 63.5896 195.45 63.7232C195.91 63.9905 196.047 64.3231 196.442 64.522Z" fill="white"/>
<path d="M26.8108 65.9259C27.075 66.4574 26.4783 66.5941 26.2793 66.8614C25.8193 67.1256 25.3531 66.9267 24.9521 66.7216C24.489 66.4574 24.6942 65.7953 24.7563 65.4627C25.3531 64.3189 26.5466 65.1271 26.8108 65.9259Z" fill="white"/>
<path d="M192.262 67.1999C192.526 67.2652 192.398 67.663 192.327 67.7998C190.739 68.5955 188.351 68.8037 186.953 67.5325C186.157 66.8642 185.166 66.6 184.298 66.0623C184.634 65.192 185.824 65.2573 186.689 65.0615C188.609 65.3288 190.139 67.1315 192.262 67.1999Z" fill="white"/>
<path d="M29.9947 66.5943C30.1253 67.1258 29.7305 67.3278 29.6 67.7288C29.3358 68.1266 28.7981 67.993 28.4779 67.8655C27.8718 67.4584 27.6045 66.7279 28.0086 66.1964C28.739 65.4567 29.6 65.8607 29.9947 66.5943Z" fill="white"/>
<path d="M35.8329 66.9976C36.0971 67.5975 35.6993 68.1321 35.1678 68.4616C34.6984 68.732 34.3037 68.3341 33.909 68.2658C33.5733 67.7964 32.9827 67.2618 33.5733 66.7272C34.1732 65.7264 35.3729 66.261 35.8329 66.9976Z" fill="white"/>
<path d="M112.493 69.8192C112.368 71.1527 110.162 69.6265 110.472 71.4044C110.789 72.6726 111.041 74.1956 111.806 75.1467C112.427 76.0388 112.117 77.4282 112.054 78.5129C111.489 79.4609 110.544 80.1603 109.534 80.6638C107.641 80.4742 104.871 81.618 103.989 79.2713C103.609 78.258 102.919 77.2386 102.919 76.1009C103.109 75.9735 103.358 75.9735 103.55 75.7808C103.55 75.3363 103.044 75.0815 103.109 74.637C105.254 74.2609 102.229 72.3524 104.054 72.2312C105.568 73.8164 108.026 73.3129 109.344 75.0224C109.661 75.2742 109.907 75.6565 110.292 75.843C110.037 74.2609 109.282 72.6726 109.03 70.96C108.834 70.071 109.151 69.2473 109.785 68.7376C110.92 67.8486 111.865 69.1199 112.493 69.8192Z" fill="white"/>
<path d="M41.6675 69.4015C41.8665 70.0666 41.335 70.4738 40.934 70.8002C40.3403 71.0706 40.0077 70.4054 39.7435 70.0666C39.5415 69.4015 40.0077 69.0689 40.4087 68.7332C40.8656 68.7332 41.4033 68.9352 41.6675 69.4015Z" fill="white"/>
<path d="M82.5762 70.0683C83.3782 72.6761 83.1077 75.343 81.7805 77.5498C81.7215 78.0875 81.9173 78.9485 81.1838 78.8832C79.3965 76.4153 80.7237 72.9434 81.4542 70.3325C81.5847 69.6705 82.3773 69.4032 82.5762 70.0683Z" fill="white"/>
<path d="M139.343 71.3353C140.275 73.2064 140.34 75.6774 139.473 77.5486L138.948 78.0801C138.214 76.5415 137.621 75.0092 137.425 73.34C137.751 72.1341 138.146 71.0679 138.214 69.8029C139.144 69.5978 139.078 70.8037 139.343 71.3353Z" fill="white"/>
<path d="M46.8397 72.0705C46.4388 72.8693 45.3167 73.0745 44.5801 73.606C42.9949 74.8058 40.6668 75.0762 38.6807 74.7436C40.4088 72.3378 43.057 70.936 46.243 71.6074C46.3797 71.8685 46.703 71.7411 46.8397 72.0705Z" fill="white"/>
<path d="M19.5815 74.4755C22.037 76.213 22.7052 78.6157 24.1537 81.0152C24.3619 81.2856 25.0271 81.354 24.7566 81.8917C24.2251 82.2896 23.6936 81.4908 22.9632 81.6244C20.4456 80.4868 18.8541 77.6801 18.9225 74.7428C18.9225 74.4755 19.3173 74.4755 19.5815 74.4755Z" fill="white"/>
<path d="M136.756 76.5447C136.821 77.2161 136.69 77.8813 136.162 78.0833C135.428 78.2822 134.832 77.8813 134.639 77.2783C134.437 76.812 134.832 76.5447 134.965 76.2122C135.497 75.6807 136.423 75.948 136.756 76.5447Z" fill="white"/>
<path d="M164.74 80.0825C164.74 78.8174 165.072 77.6114 165.2 76.4148C165.399 76.0107 165.529 75.5383 165.467 75.0099C167.059 72.8745 170.31 73.5428 172.827 73.7355C173.825 74.2701 175.084 74.208 176.144 74.4784C176.61 74.1427 177.275 74.0712 177.807 74.1427C179.923 73.0051 178.534 70.5372 178.671 68.5976L177.869 66.5959C177.673 66.1919 177.471 65.7256 177.337 65.2563C176.943 64.7901 176.675 63.9229 176.281 63.4535C175.152 60.5194 172.964 58.8503 171.105 56.5098C167.721 52.1023 162.421 49.6282 157.112 47.8907C151.878 46.0879 146.569 48.4253 141.86 50.1006C140.402 49.6997 139.675 48.559 139.271 47.2939C139.007 44.7514 139.538 42.2804 140.539 40.2103C140.735 38.5381 141.86 37.273 142.33 35.7376C143.52 31.9984 144.782 28.3245 145.046 24.2527C145.183 21.7817 143.324 20.0442 141.465 18.9719C140.204 18.6393 138.743 18.7077 137.813 19.7116C136.959 21.5082 135.1 22.711 133.508 23.5813C133.372 24.719 134.767 23.9854 135.23 24.3833C136.688 24.6506 138.339 24.1874 139.538 25.1137C139.675 27.793 138.149 29.9905 136.757 31.9984C134.503 35.3366 132.113 38.7463 130.717 42.414L130.453 42.1498L130.773 58.4742C132.89 61.9958 135.535 66.0054 139.473 67.3326C141.602 69.0639 144.25 71.1339 147.101 69.6016C148.624 69.1353 148.751 71.2738 149.488 72.1348C150.287 74.6089 148.487 76.3402 148.356 78.6123L146.634 82.2862C144.651 86.1653 142.858 90.3023 139.809 93.5783C138.811 93.5783 138.211 94.6445 137.22 94.7128C136.688 95.4433 135.625 94.9118 134.957 95.1791C132.912 96.0494 129.99 95.5117 128.601 97.4481C128.731 97.6501 128.93 97.7154 129.126 97.7869C133.17 97.8521 137.68 98.1195 141.997 97.9236C142.528 97.7154 142.989 97.2523 143.051 96.6493C142.457 95.5117 143.253 94.5108 143.784 93.6467C144.114 92.0398 145.183 91.042 145.643 89.5035C147.035 86.7651 148.624 84.0952 150.15 81.3568L152.204 78.0124C152.674 76.881 153.466 75.4761 154.259 74.2701C154.79 73.7355 155.061 73.1387 155.452 72.4736C155.524 71.8053 155.188 71.5349 154.79 71.0687C155.26 70.6024 155.987 70.7361 156.587 70.6024C158.241 71.6033 159.969 73.2071 160.298 75.0099L160.895 76.7474L161.159 77.5462L161.022 79.753L161.29 81.8231C161.625 85.0276 161.022 88.3006 160.699 91.5083C159.565 95.378 155.123 94.9802 151.937 95.8505C151.141 96.3851 149.625 96.1147 149.625 97.4481C153.466 98.25 157.973 97.7869 162.085 97.7154C162.744 97.4481 162.881 96.8482 163.211 96.2514C163.347 95.378 164.208 94.6445 163.944 93.7089C163.211 92.7795 163.885 91.3062 163.677 90.0381C163.814 89.7024 163.814 89.2393 163.677 88.7668C164.208 86.8335 164.081 84.4899 164.476 82.6219L164.74 80.0825Z" fill="white"/>
<path d="M197.367 77.4824C195.245 80.488 192.991 83.8946 189.274 84.9669C189.009 84.9669 188.742 85.0975 188.615 84.7649C190.868 82.356 192.065 78.6169 195.577 77.7466C196.109 77.4824 196.836 77.2182 197.367 77.4824Z" fill="white"/>
<path d="M16.3347 80.7536C16.0053 81.0147 16.2695 81.6177 15.6758 81.6861C15.1443 81.9565 14.5475 81.6177 14.2802 81.0862C14.0098 80.4241 14.6128 79.7527 15.1443 79.616C15.6758 79.8864 16.2042 80.0822 16.3347 80.7536Z" fill="white"/>
<path d="M35.4327 81.6849C35.6316 82.2848 34.9727 82.2848 34.637 82.4185C31.8458 83.4224 29.0018 82.4837 27.0156 80.4789C27.0156 80.2178 27.0156 79.9443 27.2798 79.8822C29.9933 80.5473 33.1792 80.0158 35.4327 81.6849Z" fill="white"/>
<path d="M19.9835 80.8176C20.114 81.0818 20.1824 81.5511 20.114 81.8184C19.7131 82.4214 19.1194 82.5551 18.4542 82.4214C18.0595 82.2194 17.8575 81.9552 17.5933 81.5511C17.6616 80.8828 18.1931 80.485 18.7184 80.2892C19.2499 80.3544 19.6509 80.485 19.9835 80.8176Z" fill="white"/>
<path d="M82.1137 81.1522C82.2505 81.7458 81.719 82.1561 81.318 82.4203C80.7274 82.554 80.1959 82.2867 79.9224 81.8857C79.7235 81.4195 79.9224 80.7543 80.3918 80.6175C80.9854 80.487 81.9148 80.5523 82.1137 81.1522Z" fill="white"/>
<path d="M199.885 81.4239C200.084 82.0859 199.484 82.4216 199.03 82.8226C198.626 83.0246 198.17 82.8226 197.762 82.6205C197.7 82.288 197.299 82.0206 197.436 81.5544C197.7 80.9576 198.291 80.6841 198.959 80.7525C199.292 81.0198 199.553 81.0882 199.885 81.4239Z" fill="white"/>
<path d="M204.262 81.1524C204.657 81.746 204.327 82.2216 203.998 82.6878C203.73 83.1572 203.205 83.2877 202.804 83.0919C202.403 82.6878 201.872 82.4858 201.812 81.8859C201.812 81.3513 202.403 80.9503 202.804 80.7545C203.466 80.4872 203.73 81.1524 204.262 81.1524Z" fill="white"/>
<path d="M13.5512 83.093C13.6165 83.5561 13.2186 83.8266 13.0912 84.2275C12.7493 84.3612 12.4229 84.6285 12.022 84.4948C11.5557 84.2928 11.2232 83.8887 11.0273 83.4256C11.161 82.8257 11.5557 82.2911 12.224 82.0922C12.7493 82.2258 13.3492 82.49 13.5512 83.093Z" fill="white"/>
<path d="M153.198 83.0938C153.335 83.358 153.263 83.6906 153.263 83.961C152.872 84.4956 152.343 84.965 151.681 84.6293C151.28 84.2283 150.808 83.8274 151.013 83.2244C151.544 82.4908 152.676 82.2266 153.198 83.0938Z" fill="white"/>
<path d="M24.2236 84.0897C24.0869 84.559 23.891 85.0284 23.2974 85.0937C22.7068 85.162 22.5017 84.6243 22.1691 84.3539C22.1691 83.7571 22.0976 83.1541 22.7068 82.8184C23.4963 82.5542 24.2236 83.2194 24.2236 84.0897Z" fill="white"/>
<path d="M17.8608 84.2243C18.0597 84.8957 17.5966 85.3619 17.2018 85.7007C16.3968 85.968 15.7347 85.3619 15.4053 84.762C15.4705 84.159 15.9368 83.4255 16.6019 83.2234C17.2018 83.2234 17.5282 83.8948 17.8608 84.2243Z" fill="white"/>
<path d="M157.575 84.0922C157.709 84.7605 157.51 85.4257 156.848 85.7023C156.052 85.9665 155.39 85.2951 155.054 84.7605C155.39 84.2259 155.449 83.4924 156.248 83.3587C156.848 83.3587 157.245 83.626 157.575 84.0922Z" fill="white"/>
<path d="M20.9758 84.3587C21.1747 84.828 20.7737 85.0238 20.6463 85.3626C20.3168 85.3626 20.1148 85.7605 19.7107 85.6299C19.4527 85.2974 18.9212 85.1606 18.8529 84.6913C18.7845 84.0261 19.2538 83.6904 19.7107 83.4231C20.3821 83.3578 20.7737 83.8241 20.9758 84.3587Z" fill="white"/>
<path d="M196.237 84.8971C196.038 85.4255 195.643 85.699 195.115 85.9725C194.583 86.1 194.251 85.6306 193.853 85.4255C193.517 85.1644 193.651 84.5676 193.781 84.2288C194.45 83.0943 196.237 83.6258 196.237 84.8971Z" fill="white"/>
<path d="M201.28 85.1593C201.078 85.8928 200.354 86.2285 199.689 86.2969C199.089 86.0296 198.43 85.5571 198.89 84.7614C199.157 84.491 199.291 84.2175 199.689 84.1584C200.478 83.8849 201.078 84.491 201.28 85.1593Z" fill="white"/>
<path d="M169.778 85.6294C170.107 86.4966 169.321 86.767 168.79 87.168C168.32 87.0996 167.926 86.9038 167.518 86.6302C167.388 85.8967 167.723 85.2316 168.457 84.8959C169.051 84.8959 169.383 85.1632 169.778 85.6294Z" fill="white"/>
<path d="M151.544 86.4323C151.877 86.5659 151.743 87.0291 151.681 87.2311C151.28 87.5015 150.755 88.1667 150.152 87.7688C149.685 87.5015 149.353 87.0974 149.49 86.4976C149.822 85.7671 151.215 85.6988 151.544 86.4323Z" fill="white"/>
<path d="M155.26 86.9011C155.325 87.4295 155.188 87.6999 154.731 87.9703C154.262 88.4334 153.73 87.9019 153.267 87.7683C153.137 87.4979 153 87.1 153.199 86.7674C153.401 86.5032 153.73 86.3012 154.063 86.2328C154.526 86.3665 155.061 86.3665 155.26 86.9011Z" fill="white"/>
<path d="M42.728 86.966C43.1228 87.3639 42.6565 87.8301 42.5944 88.2373C42.268 88.6351 41.5314 88.9739 40.9346 88.5698C40.2725 88.3025 40.3378 87.4291 40.4746 86.9007C40.8631 86.7671 40.8631 86.304 41.4008 86.304C41.9945 86.3661 42.3271 86.6303 42.728 86.966Z" fill="white"/>
<path d="M176.875 87.2305C177.009 87.8957 176.344 88.1661 175.884 88.2997C175.085 88.5671 174.684 87.9641 174.354 87.4294C174.354 87.0285 174.749 86.7674 174.886 86.4317C175.818 86.0308 176.415 86.7021 176.875 87.2305Z" fill="white"/>
<path d="M173.296 87.2299C173.56 87.895 172.829 88.2338 172.568 88.5664C172.105 88.7622 171.505 88.7001 171.104 88.2991C170.775 88.1002 170.775 87.693 170.775 87.2952C171.173 86.9626 171.372 86.5647 171.838 86.4311C172.435 86.4311 173.031 86.7668 173.296 87.2299Z" fill="white"/>
<path d="M203.206 88.03C203.337 88.9687 202.143 88.4962 201.677 88.7635C198.892 90.4357 195.305 89.1676 192.657 88.1636C192.856 87.2964 193.857 87.6352 194.385 87.2964C197.229 85.4968 200.157 87.7005 202.998 87.831L203.206 88.03Z" fill="white"/>
<path d="M21.7054 87.2304L21.4412 87.6935C18.992 89.1668 15.806 90.1677 12.8874 89.2383L12.6201 88.8342C15.0694 87.0284 18.3237 86.5652 21.5034 87.0284L21.7054 87.2304Z" fill="white"/>
<path d="M183.64 87.7005C183.64 88.2351 183.376 88.7013 182.981 88.9717C182.313 89.1675 181.448 88.9717 181.25 88.2351C181.054 87.7005 181.585 87.169 182.117 86.9669C182.577 86.9669 183.376 87.0353 183.64 87.7005Z" fill="white"/>
<path d="M33.5745 87.9681C33.3103 88.4996 33.444 89.0373 32.7788 89.3015C32.1106 89.5688 31.3211 88.9689 31.119 88.4312C30.9201 87.7007 31.4516 87.5018 31.7842 87.1692C32.583 86.7621 33.1798 87.3682 33.5745 87.9681Z" fill="white"/>
<path d="M28.8651 88.2958C29.0671 88.762 28.6661 89.0293 28.5325 89.365C28.2061 89.766 27.6062 89.7007 27.2115 89.5671C26.7484 89.1661 26.279 88.6968 26.4749 87.9663C26.8758 87.6338 27.0747 87.4317 27.5379 87.2297C28.1378 87.3633 28.7345 87.6338 28.8651 88.2958Z" fill="white"/>
<path d="M188.281 89.8353C188.216 90.4383 187.759 90.9076 187.221 91.0444C186.696 91.1065 186.226 90.7056 185.962 90.3699C185.757 89.972 185.825 89.4405 186.226 89.1048C186.357 88.9028 186.823 88.9028 187.084 88.7691C187.684 88.8375 188.147 89.3038 188.281 89.8353Z" fill="white"/>
<path d="M23.9649 89.102C24.1638 89.6335 23.6945 89.8324 23.6261 90.2365C23.4271 91.371 22.6998 92.1076 22.1683 93.1054C20.9095 94.6377 19.1192 94.6377 17.3288 95.1133L17.0615 94.5787C18.9917 92.1076 21.04 90.1712 23.7628 88.9683L23.9649 89.102Z" fill="white"/>
<path d="M184.966 90.5717C185.097 91.3705 184.438 91.5042 183.975 91.8398C183.381 91.8398 182.912 91.5042 182.648 91.0348C182.443 90.3044 183.108 90.0371 183.509 89.7045C184.171 89.5708 184.764 90.0371 184.966 90.5717Z" fill="white"/>
<path d="M31.5883 90.5711C31.5231 90.7048 31.6536 90.8353 31.7873 90.9006C31.722 91.6404 31.1874 91.8393 30.7864 92.1719C30.1927 92.1719 29.7296 91.9698 29.3349 91.5036C29.0645 90.9006 29.3349 90.1733 29.9938 89.9713C30.5906 89.906 31.3863 89.9713 31.5883 90.5711Z" fill="white"/>
<path d="M197.17 92.5789C197.829 92.5105 197.959 91.7055 198.693 91.578C199.355 91.4413 199.949 91.8391 200.278 92.3116C200.552 93.1073 199.949 93.5114 199.423 93.847C198.951 94.1796 197.959 93.4399 198.025 94.3102C198.491 94.6459 198.892 95.1121 198.951 95.6467C198.83 95.9171 198.36 95.8487 198.161 95.712C196.237 94.9101 194.183 93.5766 193.387 91.578C193.126 90.9719 191.861 90.5088 192.591 89.9711C194.515 89.8343 196.107 91.3698 197.17 92.5789Z" fill="white"/>
<path d="M203.534 90.5029C203.863 90.8386 203.733 91.4416 203.469 91.7773C203.139 92.4424 202.138 92.172 201.539 92.1098C201.212 91.7773 200.88 91.4416 201.013 90.9038C201.281 90.5029 201.539 90.2387 202.011 90.0398C202.602 89.9061 203.071 90.1734 203.534 90.5029Z" fill="white"/>
<path d="M179.462 94.1108C180.059 94.8443 180.659 95.9788 180.926 96.7838C180.789 96.9828 180.454 96.9175 180.323 96.9175C178.067 95.6462 175.154 94.2475 174.287 91.5776C174.091 91.3072 173.563 90.9746 173.628 90.5021C175.35 90.1696 177.007 91.4408 178.203 92.3733C178.673 93.0447 179.198 93.3772 179.462 94.1108Z" fill="white"/>
<path d="M27.8717 91.5752C28.1359 92.1688 27.6075 92.6444 27.2781 92.9117C26.5445 93.0422 26.1498 92.778 25.755 92.3709C25.2857 91.6373 26.1498 91.0405 26.6813 90.7732C27.2128 90.7018 27.5423 91.2395 27.8717 91.5752Z" fill="white"/>
<path d="M187.751 93.1118C187.816 93.5128 187.291 93.777 187.089 94.0474C186.561 94.1158 186.029 94.3147 185.566 93.8485C185.429 93.5128 185.103 92.9782 185.498 92.6487C186.228 91.71 187.291 92.4436 187.751 93.1118Z" fill="white"/>
<path d="M204.262 94.0439C204.464 94.8459 203.867 95.3805 203.336 95.7162C202.667 95.9151 202.142 95.4457 201.741 95.1163C201.415 94.7122 201.676 94.3112 201.741 93.845C202.207 93.4472 202.804 93.1084 203.466 93.3788C203.73 93.5808 203.998 93.7082 204.262 94.0439Z" fill="white"/>
<path d="M158.377 103.26C158.377 104.059 156.913 103.857 156.316 104.46C154.259 105.526 151.809 105.526 149.357 105.461V105.06C151.741 103.062 155.185 102.328 158.377 103.26Z" fill="white"/>
<path d="M61.6275 106.132C61.556 106.735 61.2265 107.071 60.6298 107.27C60.1635 107.27 59.7035 106.999 59.5046 106.601C59.2311 105.799 59.8993 105.467 60.3624 105.134C60.9592 105.199 61.4907 105.672 61.6275 106.132Z" fill="white"/>
<path d="M157.247 106.867C157.11 107.47 156.915 108.141 156.256 108.405C155.653 108.539 155.258 108.203 154.792 107.942C154.462 107.669 154.661 107.199 154.593 106.867C155.062 105.667 156.787 105.667 157.247 106.867Z" fill="white"/>
<path d="M170.443 107.132C168.79 108.208 166.925 109.473 164.74 109.473L161.165 109.404L160.82 109.14C163.018 106.467 166.993 106.467 170.443 106.737V107.132Z" fill="white"/>
<path d="M43.4554 108.735C43.4554 109.338 43.185 109.804 42.5944 110.009C41.9324 110.136 41.4662 109.872 41.1958 109.403C40.9316 108.803 41.1958 108.206 41.7335 107.864C42.4639 107.401 43.185 108.206 43.4554 108.735Z" fill="white"/>
<path d="M46.7709 109.405C46.9698 109.737 46.6404 109.939 46.5067 110.275C46.1058 110.474 45.5805 110.611 45.2541 110.275C44.7754 110.004 44.648 109.538 44.8532 109.137C45.049 108.736 45.4437 108.805 45.6426 108.54C46.1058 108.736 46.5689 108.941 46.7709 109.405Z" fill="white"/>
<path d="M21.3789 116.152C20.7044 116.951 19.6508 115.95 18.9234 115.549C16.5985 114.216 16.67 111.608 14.3481 110.073C14.6061 109.274 15.206 110.141 15.6691 110.004C16.0639 110.278 16.5985 110.545 17.0647 110.741C19.3182 112.012 19.8497 114.145 21.3789 116.152Z" fill="white"/>
<path d="M109.234 114.883C108.97 115.685 108.438 116.351 108.507 117.218L108.242 117.355C108.438 116.351 107.444 115.751 107.705 114.685C107.179 113.88 107.179 112.876 106.713 112.012C106.119 110.942 107.245 110.476 107.705 109.743C108.64 110.14 108.97 111.014 109.629 111.813C110.03 112.947 109.169 113.817 109.234 114.883ZM214.674 90.2416C213.611 88.3051 211.824 87.5001 209.698 87.5001C207.969 87.6338 206.714 88.7683 205.983 90.2416C205.589 91.7086 206.117 93.0452 207.251 93.9093C207.711 94.1113 208.311 94.0429 208.569 93.5798C208.908 92.7126 207.969 92.7126 207.842 92.0412C207.575 91.1088 207.91 90.3099 208.569 89.7069C209.238 89.0387 210.36 89.3682 211.155 89.3682C211.957 89.9059 212.75 90.369 213.151 91.3108C213.546 92.4391 213.546 93.7134 213.151 94.8479C212.42 96.5139 210.761 97.8505 209.032 98.1893C203.534 98.9881 143.12 98.7239 143.12 98.7239C136.024 99.389 127.936 97.3873 121.832 101.123C119.053 102.46 117.657 105.534 116.927 108.272C115.133 109.879 113.216 111.747 111.752 113.547L111.553 113.348C111.882 111.747 112.616 110.339 112.951 108.735C113.937 107.402 113.937 105.599 114.673 104.132C117.191 100.057 119.578 95.9172 123.498 93.0452C125.151 90.8383 128.073 91.2393 130.584 91.2393C133.304 92.5106 136.49 92.9115 139.803 92.5789C139.94 92.4391 140.002 92.3116 140.002 92.1096C139.07 91.2393 137.553 90.9067 136.49 90.0426C133.835 88.7683 131.318 90.4405 128.533 90.2416C128.399 90.1048 128.269 90.0426 128.331 89.8375C130.858 87.9695 133.702 86.636 136.558 85.4269C138.88 84.1619 141.336 83.4905 143.782 82.5581C144.779 82.5581 145.712 81.6909 146.638 82.2907L150.15 81.3552C150.278 81.4236 150.415 81.6225 150.679 81.5572C153.669 80.5533 157.445 81.4888 160.827 81.4236L161.293 81.8214L164.473 82.6264C165.664 82.7539 166.195 84.1619 167.457 84.2241C168.116 83.2885 166.727 82.8906 166.394 82.2907C167.858 81.9582 169.512 82.3529 170.839 82.959L170.183 83.6957C169.776 84.4292 170.376 84.9669 170.975 85.2311C171.439 85.3648 171.771 85.0291 172.107 84.8985C172.962 84.2924 172.029 83.6957 172.303 83.1548C177.211 84.0251 181.916 85.2311 186.423 87.1675C187.676 87.5654 188.873 88.5041 190.277 88.4357C188.873 87.1675 186.955 86.5024 185.233 85.7657C184.101 85.0975 182.513 85.0291 181.652 84.0935C181.851 83.7578 182.314 83.8915 182.513 83.6273C184.76 83.3569 186.691 81.6909 188.282 79.8881C188.413 79.4871 189.14 79.6177 189.078 79.0862C188.478 78.4148 187.486 79.2882 186.691 79.2198C183.906 79.7513 182.709 83.0243 179.924 83.6273C176.549 82.8254 173.092 82.0266 169.717 81.1562C168.054 80.8889 166.267 80.7553 164.737 80.0839L161.026 79.7513H154.266C154.2 79.6177 154.002 79.5493 154.064 79.3535C156.451 78.7505 158.508 77.3518 160.896 76.7457L178.671 68.596C180.524 66.9268 182.184 65.0588 183.701 63.1193C183.769 62.5847 183.436 62.0563 182.973 61.8511C182.513 61.6553 181.985 61.7237 181.652 62.1184C180.857 62.7214 181.652 63.455 181.652 64.1885C180.857 65.2577 179.591 66.1933 178.603 66.7963C178.336 66.7248 160.296 75.0113 160.296 75.0113C157.641 76.1458 154.99 77.4171 152.205 78.0138L148.366 78.6199C148.093 79.4188 147.434 79.8881 146.703 80.1554C145.64 80.3574 144.779 81.0195 143.657 81.0195C135.026 84.3608 126.084 87.9011 119.252 94.7174C119.646 93.9093 119.842 92.9115 119.914 91.9045C119.783 90.9067 119.842 89.7691 119.183 88.9734C119.031 88.6004 118.534 87.5219 118.695 87.1396L117.722 87.7705C117.123 89.2407 116.597 91.9045 117.191 93.4461C117.393 94.6459 118.384 96.0508 117.461 97.1169C114.279 100.993 112.479 105.665 110.362 110.075C109.563 109.945 109.169 109.208 108.839 108.468C111.093 105.599 112.88 102.392 113.548 98.7239C114.011 98.3882 113.676 97.5179 114.142 97.1169C114.011 96.0508 114.732 94.9847 114.207 94.1113C114.627 92.6535 112.264 91.3108 113.778 90.3752L112.532 90.9751C109.678 94.7174 114.011 100.325 110.757 103.933V104.194C109.828 105.4 109.368 106.603 108.106 107.402C106.514 106.734 105.921 104.931 104.991 103.598C103.53 102.196 103.53 99.3207 104.388 97.3874C104.991 95.4509 104 93.7787 103.795 92.0412L103.136 91.6434C101.541 93.7134 100.951 96.9864 102.209 99.4574C102.868 100.657 102.94 102.329 103.931 103.33C104.525 105.267 105.715 106.535 106.778 108.272C107.049 108.944 106.384 109.071 106.048 109.407C105.327 108.944 105.451 107.868 104.789 107.402C102.604 102.727 99.7539 98.9881 96.3068 95.1836C96.1732 94.5806 95.5733 94.0429 95.8997 93.3809C97.1678 92.1718 97.4351 89.8375 96.7669 88.3051C96.6363 87.9695 96.2416 87.5654 96.3068 87.2328L95.3091 86.4371C95.4397 88.7683 93.9135 90.8383 94.5725 93.3094V93.4461C87.7468 88.3051 80.197 83.7081 72.5103 80.1026L71.8918 81.7997C73.8438 82.2908 78.9972 85.4269 78.9972 85.4269C81.3159 86.3003 83.4419 87.699 85.6239 88.9734C94.6439 93.9776 100.609 102.258 104.656 111.477C104.721 112.21 105.389 113.012 104.926 113.746C103.53 111.611 101.541 110.411 99.8906 108.673C99.4213 105.534 97.5626 102.525 94.846 101.257C93.8545 99.7962 91.7284 99.6626 90.0687 99.187L65.9365 99.0534C46.3019 98.786 28.4017 99.6626 8.91006 99.3207C6.19037 99.0534 2.86769 98.1209 2.07821 95.2458C1.55292 94.2481 1.55292 92.5106 2.07821 91.5781C2.80553 90.3099 4.13273 89.9059 5.45994 89.7691C6.52294 89.9059 7.25027 90.9067 7.7134 91.6434C7.7134 92.5106 6.98607 93.3094 6.65038 94.0429C6.72187 94.3133 6.98607 94.8479 7.44608 94.6459C8.31017 94.3133 8.97222 93.3809 9.17736 92.5106C9.23641 92.0412 9.43535 91.3761 8.97222 91.0404C8.57437 89.6355 7.11662 88.6346 5.8609 88.3051C4.20111 88.1684 2.47916 88.6346 1.34777 89.8375C-0.243633 91.174 -0.175251 93.5798 0.287873 95.4509C1.34777 98.3882 4.46531 100.393 7.44608 100.794L71.9664 101.058C78.2668 101.394 85.3659 100.325 91.7284 101.593C94.0503 102.329 96.5089 104.061 97.0994 106.672C97.0311 106.799 96.8321 106.734 96.6363 106.734C91.3959 103.33 84.5018 102.062 77.8005 102.864C75.1523 102.727 72.7683 103.728 70.3812 104.396C69.1162 104.667 67.9226 104.061 67.1207 103.33C64.7398 101.195 60.5655 101.329 57.5101 102.127C57.5101 102.329 57.4479 102.525 57.5785 102.594C60.8328 102.329 62.7506 105.136 65.6692 105.466C66.3312 105.599 66.8627 104.866 67.4533 105.4C64.4041 106.867 61.4917 108.605 58.2436 109.54C57.2459 109.345 56.7144 108.403 55.9187 107.868C54.6568 106.47 52.3443 107.069 50.6161 106.936C50.0193 107.069 49.494 106.672 49.0931 106.936C49.6246 108.005 50.815 108.605 51.9433 109.14C53.6031 109.879 55.524 109.071 57.047 110.075C56.646 110.541 56.1207 110.678 55.6514 111.014C52.5432 112.21 49.9478 115.017 46.5039 114.818C42.8642 115.216 39.1406 114.15 36.6913 111.611C35.6283 109.006 32.9086 107.607 29.9962 107.738C29.7942 107.868 29.53 107.868 29.5921 108.21C31.0561 109.071 32.1844 110.806 33.6421 111.813C34.5684 112.947 36.3556 111.813 37.2228 113.084C38.4878 113.948 40.073 114.685 41.5308 114.952C42.5938 115.418 43.7904 115.617 44.9747 115.884L44.5178 116.155C38.4878 118.156 31.5192 118.362 24.7557 118.088C22.7603 118.02 20.8394 117.417 18.8532 117.488C19.1858 117.892 19.8479 118.225 20.4446 118.424C19.9131 118.756 19.3164 118.89 18.6574 118.958C17.8617 119.157 16.9355 119.226 16.1304 119.624C15.0705 119.561 14.1443 119.959 13.2864 120.295C12.155 121.495 10.8278 122.766 9.50994 123.366C9.50994 123.633 9.43535 124.031 9.76793 124.031C11.033 123.503 12.6213 123.9 13.8832 123.366C16.0652 123.164 17.324 120.758 19.0522 119.757C20.9078 118.29 23.5653 118.623 25.8187 118.958C27.1397 119.291 25.6851 119.826 26.0798 120.693C26.6113 121.165 27.0745 121.697 27.808 121.495C27.9385 121.358 28.0691 121.23 28.2742 121.165C28.669 120.631 28.5975 120.024 28.3333 119.49C29.2595 118.89 30.5277 119.561 31.5192 119.157C34.0369 119.092 36.5545 118.557 39.01 118.489C39.4079 118.424 39.8772 118.02 40.2719 118.424C40.073 118.958 39.4079 119.027 39.6783 119.757C39.8088 120.357 40.474 120.631 40.9993 120.758C41.6644 120.491 42.2612 120.024 41.9939 119.157C41.8571 118.688 41.335 118.623 40.9993 118.424C42.3949 117.755 43.9894 117.553 45.3756 116.888C46.3672 116.686 47.2934 116.351 48.1668 115.953C49.0216 115.884 49.752 115.086 50.5508 115.418C50.2213 116.553 49.752 117.625 49.1583 118.623C48.1046 122.163 47.2934 126.844 49.1583 130.244C49.3573 130.313 49.4225 130.176 49.5531 130.111C48.1668 126.57 48.9563 122.499 50.153 119.157C51.0792 113.485 56.9164 111.813 61.0908 109.674L61.2928 109.945C60.1645 112.876 58.511 115.685 58.7689 119.226C58.9057 119.826 58.511 120.425 58.7689 120.83C59.9003 120.223 60.6276 118.89 61.2275 117.755C61.6907 114.753 59.9656 111.014 63.0148 108.807C68.4541 106.672 73.5578 103.865 79.8582 103.8C80.0664 103.999 80.5202 103.666 80.5886 104.061C79.2614 105.534 77.3405 106.936 76.7437 108.735C74.627 111.676 74.6861 116.686 75.6123 120.295C76.2122 122.362 74.4281 123.503 73.5578 125.103C73.1444 125.666 73.0294 126.639 72.6502 127.295L73.9588 127.447C75.0871 126.241 76.1501 124.768 76.2122 123.03C76.349 123.702 76.9396 124.233 77.4773 124.367C77.9342 123.633 77.0763 123.099 77.0079 122.362C78.0709 121.759 78.5341 123.099 79.3982 123.366C80.7844 123.702 81.978 124.298 83.4419 124.298L83.902 123.835C82.4442 121.563 79.5287 121.165 77.0079 121.028C75.6901 118.825 75.69 116.093 75.8175 113.413C76.0786 112.012 76.349 110.541 77.1385 109.276C77.4773 108.344 78.4035 107.47 78.9972 106.734C80.1876 105.599 81.7169 104.797 83.1684 104.465H83.3704C83.3704 104.602 83.4419 104.667 83.4419 104.667C81.6485 106.069 81.4527 108.005 80.3897 109.743C79.2614 111.409 78.733 113.681 79.7991 115.549C80.1876 116.416 79.9949 117.755 80.915 118.362C81.779 117.156 81.8536 115.617 82.3074 114.284C82.1116 112.077 80.7844 110.013 82.0432 107.868C82.7115 106.199 84.1071 105.534 85.6239 104.931C89.273 104.602 92.4558 106.47 95.6417 107.868C96.3068 108.344 97.4351 108.735 97.5626 109.674C97.5004 111.477 96.5089 113.28 95.1102 114.15C93.3167 115.216 90.7338 115.35 89.074 114.085C88.0825 113.084 87.6815 111.343 88.0141 110.013C88.7446 109.208 89.7423 108.537 90.9265 108.944C91.5948 109.276 92.1916 109.945 93.0494 109.54C93.3882 109.345 93.5188 108.807 93.3167 108.468C92.5863 108.073 92.3283 107.069 91.3275 106.936C90.0687 106.734 88.5425 106.799 87.6815 107.672C86.2922 108.872 85.7607 110.678 86.1616 112.347C86.6185 114.483 88.2193 116.021 90.2645 116.624C93.3167 117.355 96.5089 116.416 98.4266 113.817C99.2223 112.947 99.4213 112.012 99.8906 110.942C103.067 112.876 105.451 116.285 106.713 119.757C106.713 120.895 107.049 122.091 106.778 123.099L109.097 123.297C108.901 122.766 109.097 122.163 109.299 121.697C110.166 117.289 112.88 113.609 116.128 110.743C117.259 110.075 116.986 111.611 117.259 112.077C118.254 114.619 120.579 116.416 123.028 117.156C125.81 117.625 128.464 116.95 130.196 114.818C131.054 113.214 132.113 110.877 130.65 109.208C129.723 108.073 128.464 107.47 127.01 107.47C125.282 107.47 124.219 108.673 123.364 109.945C123.364 110.476 123.292 111.076 123.759 111.343C124.023 111.343 124.554 111.409 124.756 111.014C124.893 110.013 125.745 109.54 126.547 109.006C127.268 108.605 128.073 109.006 128.67 109.407C129.391 110.013 129.527 111.014 129.59 112.012C129.459 113.28 128.595 114.619 127.405 115.151C125.487 116.155 122.696 115.685 121.039 114.551C120.243 113.681 119.783 112.683 119.183 111.611C119.053 110.541 118.649 109.606 119.183 108.537C122.102 106.799 125.151 105.534 128.67 105.198C130.059 105.466 131.256 106.401 132.182 107.402C135.231 110.541 131.517 115.017 133.64 118.489C134.435 118.362 134.435 117.289 134.768 116.624C135.763 114.221 134.501 111.611 133.901 109.276C133.108 107.803 132.645 106.535 131.386 105.335C131.719 105.198 131.846 105.198 132.182 105.198C133.577 106.131 135.097 107.206 136.226 108.673C138.143 111.813 139.144 115.549 138.812 119.624C138.28 121.628 136.16 122.567 134.501 123.297C133.835 123.835 133.04 124.634 132.707 125.436C133.512 125.899 134.637 125.436 135.427 125.103C136.689 124.634 137.422 123.03 138.28 122.3C138.408 122.362 138.349 122.567 138.408 122.704C138.479 123.431 138.084 124.435 138.743 124.634C139.07 123.702 139.144 122.362 139.34 121.23C140.207 122.163 140.341 123.366 140.602 124.569C141.199 125.768 142.193 127.375 143.782 127.574C144.183 126.974 143.716 126.371 143.589 125.837C143.387 124.165 141.994 123.297 141.068 122.091C138.743 118.89 139.803 113.88 138.013 110.277C137.345 108.344 135.958 106.936 134.435 105.335L134.703 105.065C137.948 104.999 140.667 106.069 143.657 106.672C147.306 108.468 152.609 108.073 154.328 112.813C155.061 115.483 156.255 117.951 158.114 120.024L158.31 119.891C158.704 119.226 158.704 118.088 158.31 117.417C157.905 114.085 154.99 113.28 153.464 110.476L153.669 110.209C155.26 110.678 156.914 111.076 158.508 111.747C163.814 113.214 167.516 118.424 168.191 123.835C168.191 128.109 167.385 131.646 165.735 135.255C165.53 135.792 164.604 136.389 165.204 136.855C165.931 136.321 166.068 135.454 166.462 134.854C168.654 131.177 169.776 126.104 168.654 121.429C168.579 120.559 167.594 119.891 168.054 119.027C168.389 119.428 168.79 119.49 169.185 119.624C169.586 119.359 170.183 119.359 170.444 118.89C170.512 118.489 170.777 118.02 170.444 117.69C170.04 117.087 169.185 117.087 168.526 117.218C168.191 117.625 167.79 118.156 167.721 118.688C167.062 117.553 166.394 116.093 165.334 115.151L165.468 114.952C168.455 115.953 171.168 117.417 174.227 118.225C174.886 118.623 175.616 118.958 176.549 118.958C179.135 119.959 181.985 120.357 184.701 121.028C186.691 120.83 188.35 121.759 190.337 121.296V121.165L190.277 121.23C189.541 120.295 187.946 121.165 187.085 120.491C182.513 120.024 178.134 118.825 174.025 117.218C174.09 117.019 174.357 117.087 174.562 117.087C175.221 116.755 175.681 116.155 175.616 115.418C175.283 114.952 174.752 114.685 174.09 114.685C173.689 114.883 173.161 115.35 173.092 115.816C173.161 116.351 173.63 116.95 174.09 117.087C173.959 117.218 173.689 117.156 173.499 117.156C171.439 116.22 169.446 115.35 167.457 114.42C166.727 114.284 166.13 113.681 165.399 113.547C163.876 112.813 162.353 112.077 160.827 111.477C156.578 109.276 151.879 108.073 147.365 106.47C146.371 106.199 145.438 105.932 144.515 105.665C142.855 105.198 141.199 104.797 139.545 104.328C133.901 102.932 126.342 102.796 121.434 105.87C120.644 105.599 120.178 106.867 119.783 106.069C121.169 102.392 125.216 101.195 128.862 101.058C155.459 100.794 180.39 100.589 206.583 100.191C209.632 100.191 212.619 99.1248 214.211 96.3834C215.333 94.7827 215.532 92.0412 214.674 90.2416Z" fill="white"/>
<path d="M181.184 110.675C181.184 110.874 181.585 110.94 181.448 111.275C179.136 113.345 175.878 113.945 172.565 114.082C172.301 114.147 172.03 114.349 171.704 114.281C171.505 114.147 171.437 113.945 171.573 113.809C173.964 111.207 177.603 109.874 181.184 110.675Z" fill="white"/>
<path d="M170.512 111.745C170.776 112.681 170.179 113.215 169.443 113.545C168.715 113.48 168.32 113.013 167.988 112.476C167.792 111.944 168.252 111.677 168.457 111.347C168.983 110.807 170.241 110.807 170.512 111.745Z" fill="white"/>
<path d="M44.4503 111.877C44.5808 112.34 44.5155 112.946 44.1177 113.272C43.8566 113.611 43.2598 113.679 42.9273 113.611C42.461 113.546 42.1906 113.011 42.0601 112.61C42.0601 112.007 42.3957 111.674 42.9273 111.342C43.4588 111.342 44.0555 111.277 44.4503 111.877" fill="white"/>
<path d="M32.5802 116.217V116.68C30.9888 117.019 29.4658 116.618 28.2722 115.685C27.3398 114.346 26.2799 113.012 24.7506 112.344C24.7506 112.142 24.3559 111.878 24.7506 111.744C28.0733 111.744 30.0626 114.414 32.5802 116.217Z" fill="white"/>
<path d="M191.263 111.81C189.74 114.082 188.413 116.886 185.694 117.89C185.234 117.89 184.839 118.555 184.432 118.092C185.501 115.552 187.751 112.814 190.337 111.748C190.601 111.748 190.999 111.68 191.263 111.81Z" fill="white"/>
<path d="M48.2961 112.615C48.3614 113.349 47.8361 113.483 47.3636 113.884C46.8384 113.949 46.5742 113.548 46.2416 113.147C45.9743 112.476 46.5742 112.218 46.9005 111.882C47.4382 111.748 48.0319 112.149 48.2961 112.615Z" fill="white"/>
<path d="M199.619 113.009C199.025 113.879 199.286 115.144 198.693 116.083C197.365 117.619 196.237 119.356 194.121 119.686C193.785 119.023 194.581 118.355 194.91 117.752C195.836 115.747 197.163 113.475 199.286 112.614L199.619 113.009Z" fill="white"/>
<path d="M12.0218 113.613C12.2238 114.079 12.4227 114.549 12.0218 115.083C11.6332 115.419 11.0334 115.549 10.4987 115.347C9.90197 115.012 9.70615 114.278 9.96724 113.744C10.3682 113.15 11.5618 112.814 12.0218 113.613Z" fill="white"/>
<path d="M8.25082 114.413C8.31299 114.743 8.5088 115.013 8.44353 115.346C8.25082 115.688 7.91203 116.086 7.51728 116.154C6.78685 116.288 6.32373 115.884 5.99115 115.284C5.92277 114.681 6.11859 114.146 6.65009 113.882C7.25309 113.612 7.91203 113.95 8.25082 114.413Z" fill="white"/>
<path d="M16.064 114.815C16.207 115.346 16.3345 116.282 15.545 116.412C14.6156 116.823 14.0779 116.151 13.5464 115.614C13.5464 115.014 13.8883 114.547 14.3483 114.28C15.0104 114.218 15.6071 114.28 16.064 114.815Z" fill="white"/>
<path d="M26.9453 115.685C26.8801 116.148 27.0106 116.823 26.4791 116.954C26.1496 117.289 25.5529 117.156 25.2234 117.087C25.0866 116.683 24.3562 116.347 24.754 115.884C25.0276 115.549 25.2855 115.353 25.6865 115.151C26.0906 115.353 26.6811 115.151 26.9453 115.685" fill="white"/>
<path d="M205.989 116.153C205.787 116.617 205.529 117.223 204.992 117.223C204.398 117.154 203.798 117.086 203.465 116.489C203.204 115.752 203.798 115.352 204.33 115.149C204.992 115.149 205.856 115.42 205.989 116.153Z" fill="white"/>
<path d="M193.856 116.487C193.918 117.021 193.324 117.419 193.06 117.624C192.134 118.019 191.332 117.357 191 116.623C191.136 116.023 191.596 115.619 192.134 115.417C192.992 115.349 193.461 115.821 193.856 116.487Z" fill="white"/>
<path d="M202.077 116.349C202.077 116.819 201.813 117.285 201.48 117.487C200.948 117.686 200.28 117.621 199.885 117.217C199.292 116.682 199.755 116.219 200.159 115.818C200.75 115.482 201.875 115.548 202.077 116.349Z" fill="white"/>
<path d="M10.2993 117.487C10.4329 118.221 10.1687 118.886 9.50359 119.156C8.91303 119.156 8.25098 118.824 8.04584 118.221C7.97746 117.621 8.17327 117.024 8.70478 116.825C9.36683 116.62 9.90455 117.024 10.2993 117.487Z" fill="white"/>
<path d="M190.535 118.225C190.737 118.958 190.336 119.62 189.609 119.962C189.077 120.093 188.745 119.826 188.35 119.493C188.086 119.157 187.756 118.424 188.282 118.091C188.813 117.087 190.14 117.491 190.535 118.225Z" fill="white"/>
<path d="M45.9741 118.957C46.2383 119.69 45.4519 119.824 45.2405 120.228C44.9825 120.355 44.451 120.427 44.2521 120.16C43.9195 119.756 43.5248 119.351 43.7144 118.755C44.0563 118.49 44.1868 118.223 44.5816 118.09C45.3151 117.887 45.5793 118.559 45.9741 118.957Z" fill="white"/>
<path d="M204.793 119.426C204.929 119.889 204.528 120.088 204.466 120.427C204.065 120.762 203.4 120.828 202.934 120.697C202.343 120.358 202.343 119.824 202.343 119.227C202.738 118.963 202.806 118.627 203.27 118.49C203.866 118.49 204.591 118.754 204.793 119.426Z" fill="white"/>
<path d="M200.681 119.623C200.946 120.425 200.221 120.829 199.69 121.025C199.423 121.093 199.028 120.894 198.96 121.295C200.681 122.163 201.741 123.564 203.072 124.833V125.367C200.681 125.299 198.226 124.699 196.504 122.831C196.044 122.498 195.242 122.498 194.717 122.026C195.578 121.162 197.163 121.494 198.36 121.429C199.217 120.49 197.365 119.825 198.49 119.03C198.891 118.955 199.152 118.554 199.69 118.691C200.156 118.89 200.417 119.228 200.681 119.623Z" fill="white"/>
<path d="M173.561 119.688C173.692 120.021 173.297 120.425 173.232 120.754C172.828 121.158 172.228 121.221 171.771 121.028C171.439 120.555 170.901 120.151 171.106 119.486C171.637 118.479 173.362 118.687 173.561 119.688Z" fill="white"/>
<path d="M25.2852 122.032C25.0863 122.632 24.8252 123.03 24.1631 123.102C23.6316 123.03 23.1623 122.831 22.9665 122.3C22.895 121.833 23.2307 121.569 23.2959 121.23C24.0264 120.631 25.3505 121.028 25.2852 122.032Z" fill="white"/>
<path d="M30.6601 121.163C30.6601 122.095 29.6624 122.633 29.3329 123.565C28.3352 125.769 26.5417 127.771 24.0241 127.973C23.7599 127.373 24.8913 126.633 25.1492 126.036C26.2123 123.767 28.3352 122.567 30.2592 121.163H30.6601Z" fill="white"/>
<path d="M171.968 122.094C172.033 122.828 171.371 123.365 170.84 123.633C170.24 123.829 169.777 123.365 169.444 123.095C168.912 122.56 169.248 122.029 169.512 121.494C170.314 120.692 171.439 121.361 171.968 122.094Z" fill="white"/>
<path d="M176.08 122.563C176.014 123.293 175.554 123.834 174.889 124.033C174.752 123.834 174.426 123.962 174.227 123.896C173.761 123.632 173.36 123.228 173.36 122.697C173.689 122.361 173.826 121.829 174.292 121.761C174.889 121.696 175.881 121.761 176.08 122.563Z" fill="white"/>
<path d="M40.9314 122.498C40.9967 123.232 40.4745 123.636 39.9399 123.894C39.3369 123.965 38.9422 123.568 38.678 123.095C38.5474 122.498 39.1473 122.097 39.4737 121.762C40.2694 121.498 40.4745 122.097 40.9314 122.498Z" fill="white"/>
<path d="M45.5165 122.762C45.3082 123.362 44.9197 123.763 44.2452 123.896C43.7883 123.763 43.2568 123.632 43.0548 123.088C42.9926 122.426 43.5241 122.097 43.981 121.758C44.6493 121.758 45.3766 122.028 45.5165 122.762Z" fill="white"/>
<path d="M190.338 127.439C190.667 127.704 191.264 128.036 191.134 128.505C190.074 128.975 189.21 127.772 188.212 127.573C186.62 125.972 185.424 124.235 184.762 122.23C185.362 121.63 186.03 122.364 186.561 122.566C188.084 123.831 189.542 125.503 190.338 127.439Z" fill="white"/>
<path d="M192.793 122.765C192.992 123.228 192.924 123.766 192.66 124.232C192.262 124.897 191.395 124.773 190.798 124.633C190.468 124.232 189.875 123.698 190.269 123.092C190.468 122.566 191.065 122.43 191.528 122.231C191.991 122.168 192.333 122.566 192.793 122.765Z" fill="white"/>
<path d="M51.6092 124.501C51.6745 125.032 51.8113 125.834 51.1492 126.17C50.5493 126.304 49.7567 126.108 49.5609 125.365C49.2252 124.566 49.9494 124.436 50.3535 124.038C50.8819 123.898 51.2145 124.168 51.6092 124.501Z" fill="white"/>
<path d="M175.881 128.84C176.807 130.177 177.466 131.846 177.597 133.583C177.404 134.053 177.936 134.516 177.535 134.852H177.274C174.287 132.716 173.621 129.704 172.499 126.705C172.229 126.571 172.164 126.304 172.229 126.034C172.888 125.434 173.357 126.64 174.022 126.839L175.881 128.84Z" fill="white"/>
<path d="M60.2328 126.571C60.1676 126.636 60.2328 126.705 60.295 126.705C57.6468 128.576 53.9325 129.71 50.8802 127.904C50.8149 127.705 50.9548 127.37 51.2097 127.304C53.1399 126.705 54.9924 125.769 57.0469 126.036L60.2328 126.571Z" fill="white"/>
<path d="M45.11 126.903C42.8565 128.304 40.802 131.043 38.017 131.708C37.4824 131.907 37.153 132.647 36.4878 132.242C37.6845 128.637 41.6008 126.704 45.11 126.368V126.903Z" fill="white"/>
<path d="M171.967 129.908C172.166 130.442 171.967 131.182 171.439 131.313C171.106 131.648 170.444 131.648 170.186 131.313C169.583 131.045 169.583 130.442 169.583 129.976C169.776 129.513 170.239 129.448 170.575 129.246C171.171 129.379 171.638 129.379 171.967 129.908Z" fill="white"/>
<path d="M166.464 130.242C166.069 131.175 164.941 131.713 164.073 131.977C161.826 132.779 159.769 131.713 157.779 131.175C157.841 130.64 158.507 130.842 158.833 130.507C161.024 130.04 163.278 129.577 165.609 130.177C165.805 130.04 166.265 129.975 166.464 130.242Z" fill="white"/>
<path d="M45.1102 132.182C44.9113 132.449 44.8522 133.052 44.3145 133.251C43.8514 133.45 43.3883 133.251 42.9935 132.984C42.8568 132.577 42.3936 132.247 42.7262 131.784C42.8568 131.318 43.3883 131.181 43.783 131.044C44.4513 131.113 44.9734 131.517 45.1102 132.182Z" fill="white"/>
<path d="M49.0232 132.783C48.8242 133.177 48.6284 133.79 48.0969 134.054C47.5592 134.184 47.1644 133.92 46.7697 133.585C46.5677 133.177 46.3687 132.717 46.5677 132.254C46.7044 131.915 47.1644 131.847 47.5001 131.648C48.1684 131.583 48.759 132.254 49.0232 132.783Z" fill="white"/>
<path d="M170.703 133.447C170.774 133.982 170.51 134.317 170.243 134.721C169.907 135.188 169.245 135.253 168.791 134.986C168.319 134.914 168.191 134.383 167.986 134.05C167.595 133.515 168.254 133.18 168.456 132.72C169.18 132.114 170.373 132.449 170.703 133.447Z" fill="white"/>
<path d="M173.624 133.314C173.689 133.65 173.894 133.976 173.757 134.247C173.36 134.582 173.099 135.449 172.303 135.12C171.908 135.251 171.706 134.716 171.504 134.582C171.234 133.914 171.439 132.916 172.303 132.779C172.89 132.577 173.294 133.112 173.624 133.314Z" fill="white"/>
<path d="M46.6419 135.251C46.7725 135.987 46.5051 136.652 45.9736 137.056C45.2463 137.193 44.3139 137.193 44.0497 136.323C43.9875 135.648 44.0497 134.791 44.8516 134.386C45.5198 134.318 46.3031 134.452 46.6419 135.251Z" fill="white"/>
<path d="M50.4117 134.985C50.2811 136.853 49.8895 139.125 48.0277 140.194C46.9678 140.396 45.911 141.397 44.8511 140.732V140.396C46.2404 138.391 48.7581 136.853 50.4117 134.985Z" fill="white"/>
<path d="M160.297 136.518C160.561 136.918 160.098 137.254 159.902 137.593C159.501 138.056 158.774 137.854 158.307 137.655C157.841 137.456 157.779 136.785 157.978 136.319C158.112 135.918 158.516 135.719 158.833 135.585C159.442 135.52 159.964 136.058 160.297 136.518Z" fill="white"/>
<path d="M57.0472 139.594C57.9797 141.129 57.442 143.202 57.9797 144.871C56.8483 145.002 56.3821 143.737 55.6548 143.069C54.2032 141.061 54.3928 138.391 53.7339 136.053C53.8706 135.851 54.0696 135.851 54.2032 135.917C55.1885 136.585 55.919 137.856 56.7209 138.727C56.5903 139.193 57.1125 139.193 57.0472 139.594Z" fill="white"/>
<path d="M163.611 137.056C163.611 137.587 163.017 137.724 162.685 138.057C162.218 137.994 161.821 137.789 161.426 137.454C161.221 136.792 161.758 136.593 162.088 136.26C162.75 135.987 163.412 136.322 163.611 137.056Z" fill="white"/>
<path d="M171.506 143C171.506 143.199 171.441 143.597 171.105 143.46H170.838C168.914 141.729 166.993 139.793 167.257 137.12L167.652 137.051C169.445 138.593 171.441 140.262 171.506 143Z" fill="white"/>
<path d="M166.531 140.861C166.593 141.396 166.267 141.797 165.934 142.13C165.204 142.329 164.076 142.257 163.945 141.259C163.883 140.594 164.604 140.262 164.937 139.926C165.736 139.724 166.267 140.262 166.531 140.861Z" fill="white"/>
<path d="M162.154 142.26C161.222 144.734 158.704 146.002 156.982 147.873C156.65 147.674 156.787 147.14 156.846 146.872C157.511 144.333 159.5 141.865 161.955 140.867C163.018 140.995 161.955 141.731 162.154 142.26Z" fill="white"/>
<path d="M167.13 144.266C167.13 144.865 166.533 145.136 166.203 145.475C165.666 145.403 165.14 145.269 164.739 144.729C164.674 144.067 165.206 143.865 165.6 143.532C166.269 143.395 166.859 143.734 167.13 144.266Z" fill="white"/>
<path d="M117.875 23.5416H117.142C115.221 23.5416 116.85 25.8727 117.882 25.8727C119.165 25.8727 119.252 23.5416 117.875 23.5416ZM111.929 25.8727C113.859 25.8727 112.035 23.5416 111.006 23.5416H109.085C107.158 23.5416 108.983 25.8727 110.018 25.8727H111.929ZM103.876 25.8727C105.803 25.8727 103.982 23.5416 102.95 23.5416H101.032C99.1048 23.5416 100.926 25.8727 101.949 25.8727H103.876ZM117.782 23.0163C118.683 23.0163 119.423 23.7529 119.423 24.6667C119.423 25.5837 118.683 26.3203 117.782 26.3203H98.1164C97.2181 26.3203 96.4814 25.5837 96.4814 24.6667C96.4814 23.7529 97.2181 23.0163 98.1164 23.0163H117.782Z" fill="white"/>
<path d="M117.918 53.4996C117.918 54.3699 119.09 53.7887 119.957 53.7887C120.812 53.7887 121.986 54.3699 121.986 53.4996C121.986 52.2688 120.812 52.6946 119.957 52.6946C119.09 52.6946 117.918 52.2688 117.918 53.4996ZM121.604 55.5511C122.45 55.5511 122.527 54.3886 122.527 53.3877C122.527 51.1032 120.721 53.3877 119.795 51.2369C119.121 53.0489 117.265 51.3705 117.265 53.3194C117.265 54.659 117.259 55.5511 118.583 55.5511H121.604ZM116.053 45.5768L119.82 47.0159L123.509 45.5768L122.055 51.1032L124.977 50.5002L123.979 53.854L124.977 57.071L122.381 56.3654L123.509 62.3301L119.82 60.8879L116.053 62.3301L117.585 56.3654L114.589 57.2046L115.388 53.854L114.589 50.6339L117.458 51.1032L116.053 45.5768Z" fill="white"/>
<path d="M107.264 53.7148V53.0124L106.636 52.8912L107.13 52.3783L106.825 51.8157L107.466 51.8841L107.857 51.1972L108.24 51.8717L108.889 51.8157L108.585 52.3783L109.085 52.8912L108.448 53.0124V53.7148L107.857 53.2673L107.264 53.7148Z" fill="white"/>
<path d="M104.346 57.4668V56.7674L103.724 56.6493L104.209 56.1334L103.904 55.5677L104.548 55.6392L104.939 54.9523L105.328 55.6298L105.974 55.5677L105.673 56.1334L106.164 56.6493L105.536 56.7674V57.4668L104.939 57.0223L104.346 57.4668Z" fill="white"/>
<path d="M109.295 56.9902V56.2878L108.673 56.1728L109.161 55.6537L108.857 55.0911L109.497 55.1626L109.889 54.4757L110.271 55.1471L110.933 55.0911L110.628 55.6537L111.11 56.1728L110.485 56.2878V56.9902L109.889 56.5489L109.295 56.9902Z" fill="white"/>
<path d="M109.882 59.793V59.3982L109.525 59.333L109.805 59.0408L109.627 58.7175L109.994 58.7579L110.221 58.3694L110.433 58.7517L110.802 58.7175L110.628 59.0408L110.899 59.333L110.548 59.3982V59.793L110.221 59.5412L109.882 59.793Z" fill="white"/>
<path d="M105.284 63.0039V61.7979L104.202 61.599L105.051 60.7132L104.532 59.7527L105.629 59.8677L106.303 58.6928L106.956 59.846L108.081 59.7527L107.556 60.7132L108.398 61.599L107.323 61.7979V63.0039L106.303 62.2393L105.284 63.0039Z" fill="white"/>
<path d="M107.623 0.000526702L109.96 5.74451L115.869 4.00391L112.869 9.42463L117.914 12.9991L111.831 14.0093L112.201 20.207L107.623 16.0545L103.044 20.207L103.414 14.0093L97.3408 12.9991L102.379 9.42463L99.3736 4.0008L105.292 5.74451L107.623 0.000526702Z" fill="white"/>
<path d="M86.2311 128.803C85.5255 129.064 85.2489 129.26 85.4292 129.987L86.2622 133.506C86.4114 134.158 86.4642 135.184 86.029 135.815C85.5069 136.567 84.4159 137.055 83.6264 137.245C83.0452 137.385 81.7988 137.615 80.7917 137.189C80.1265 136.906 79.6945 136.601 79.4117 135.408L78.532 131.721C78.3176 130.798 77.9726 130.854 77.2235 130.969L77.1582 130.689L81.5998 129.623L81.6713 129.9C80.8041 130.142 80.4032 130.251 80.6332 131.224L81.5035 134.907C81.6496 135.535 82.0101 137.058 83.903 136.604C86.2186 136.051 85.8488 134.357 85.6747 133.649L84.8852 130.279C84.7236 129.608 84.4718 129.266 83.3342 129.499L83.2721 129.222L86.1658 128.529L86.2311 128.803Z" fill="white"/>
<path d="M92.8158 129.54C92.4149 128.819 91.3394 127.725 89.7853 128.067C89.0922 128.219 88.4395 128.72 88.6011 129.438C88.7316 130.034 89.0331 130.218 90.2453 130.442L92.3682 130.815C92.8593 130.902 94.0001 131.321 94.2674 132.53C94.4756 133.503 93.9348 135.032 91.5073 135.573C90.2453 135.853 89.5709 135.611 89.1637 135.704C88.8839 135.766 88.8591 135.98 88.8466 136.167L88.4643 136.254L87.8675 133.516L88.2436 133.432C88.7534 134.492 89.804 135.567 91.4824 135.197C93.0614 134.846 92.8811 133.733 92.8531 133.59C92.6915 132.844 92.0077 132.72 91.0752 132.568L90.1148 132.412C87.6562 132.005 87.4448 131.054 87.336 130.541C87.1806 129.87 87.2583 128.266 89.7667 127.713C90.8266 127.473 91.5321 127.697 91.9082 127.616C92.2191 127.545 92.247 127.368 92.2657 127.144L92.6542 127.054L93.1919 129.456L92.8158 129.54Z" fill="white"/>
<path d="M101.567 133.913L96.762 134.373L96.734 134.09C97.7069 133.929 98.0364 133.879 97.9431 132.928L97.3774 126.969C96.4388 127.106 95.0525 127.296 94.9624 129.126L94.5676 129.17L94.3936 126.892L102.475 126.118L102.72 128.384L102.326 128.421C101.884 126.643 100.486 126.718 99.5594 126.764L100.122 132.719C100.215 133.677 100.535 133.667 101.542 133.627L101.567 133.913Z" fill="white"/>
<path d="M106.956 129.882C108.728 129.904 109.43 129.667 109.471 128.191C109.486 127.044 108.945 126.544 107.864 126.522C107.118 126.513 107.087 126.637 107.015 126.985L106.956 129.882ZM112.815 133.91L110.046 133.857L107.32 130.252L106.95 130.246L106.912 132.471C106.891 133.379 107.183 133.419 108.078 133.537L108.069 133.82L103.506 133.73V133.447C104.426 133.376 104.696 133.344 104.715 132.424L104.814 127.411C104.833 126.432 104.413 126.398 103.649 126.335L103.655 126.056L108.003 126.14C108.951 126.158 111.814 126.307 111.777 128.213C111.752 129.611 110.35 129.935 109.617 130.115L112.271 133.4C112.454 133.612 112.66 133.624 112.824 133.63L112.815 133.91Z" fill="white"/>
<path d="M117.924 131.883L116.904 128.977L115.313 131.554L117.924 131.883ZM121.688 135.057L117.336 134.513L117.374 134.23C118.216 134.276 118.462 134.295 118.505 133.925C118.539 133.621 118.216 132.732 118.073 132.346L115.055 131.967C114.576 132.735 114.306 133.17 114.284 133.347C114.234 133.776 114.868 133.888 115.325 133.972L115.288 134.252L112.568 133.913L112.603 133.63C113.333 133.63 113.572 133.269 114.079 132.477L117.818 126.68L118.194 126.724L120.454 133.027C120.911 134.308 121.085 134.715 121.725 134.771L121.688 135.057Z" fill="white"/>
<path d="M129.565 136.66L121.873 135.243L121.925 134.963C122.684 135.022 123.085 135.066 123.215 134.385L124.191 128.977C124.325 128.243 123.79 128.119 123.194 127.973L123.246 127.696L127.887 128.548L127.831 128.824C126.892 128.694 126.485 128.629 126.308 129.608L125.351 134.879C125.257 135.417 125.531 135.56 126.417 135.725C128.431 136.094 129.345 135.302 130.181 134.155L130.569 134.223L129.565 136.66Z" fill="white"/>
<path d="M134.668 137.801L130.034 136.828L130.096 136.545C130.817 136.648 131.342 136.707 131.482 136.023L132.595 130.643C132.75 129.906 132.132 129.754 131.529 129.589L131.588 129.318L136.222 130.294L136.163 130.568C135.538 130.459 134.901 130.341 134.74 131.09L133.627 136.467C133.484 137.182 134.009 137.322 134.727 137.518L134.668 137.801Z" fill="white"/>
<path d="M140.243 135.912L139.161 133.028L137.614 135.642L140.243 135.912ZM144.076 139.008L139.712 138.551L139.743 138.271C140.582 138.299 140.831 138.315 140.865 137.942C140.89 137.634 140.554 136.754 140.399 136.372L137.368 136.058C136.908 136.832 136.65 137.27 136.625 137.46C136.585 137.886 137.225 137.982 137.679 138.05L137.657 138.336L134.922 138.05L134.953 137.771C135.69 137.758 135.917 137.392 136.404 136.59L140.022 130.712L140.405 130.752L142.792 136.997C143.274 138.271 143.454 138.678 144.1 138.722L144.076 139.008Z" fill="white"/>
<path d="M107.129 47.9341C106.334 47.9341 105.258 48.4842 105.258 47.5393C105.258 46.1997 106.166 46.4981 106.962 46.4981C107.751 46.4981 108.994 46.1997 108.994 47.5393C108.994 48.4842 107.919 47.9341 107.129 47.9341ZM109.495 47.4119C109.495 44.6829 107.966 47.2378 107.111 44.9191C106.502 46.8835 104.655 45.233 104.655 47.3404C104.655 48.1454 104.864 48.6117 105.258 48.8697V49.6747C105.258 49.8798 105.426 50.0508 105.628 50.0508H108.522C108.736 50.0508 108.907 49.8798 108.907 49.6747V48.8044C109.252 48.5029 109.495 48.0335 109.495 47.4119" fill="white"/>
<path d="M133.22 80.875C133.913 80.875 134.466 80.3808 134.466 79.7747C134.466 79.1686 133.913 78.6744 133.22 78.6744C132.527 78.6744 131.97 79.1686 131.97 79.7747C131.97 80.3808 132.527 80.875 133.22 80.875Z" fill="white"/>
<path d="M127.343 40.486C127.343 40.486 126.749 41.4713 126.749 41.6609C126.749 42.0184 127.019 42.3105 127.349 42.3105C127.675 42.3105 127.939 42.0184 127.939 41.6609C127.939 41.6392 127.343 40.486 127.343 40.486Z" fill="white"/>
<path d="M87.2852 40.486C87.2852 40.486 86.6978 41.4713 86.6978 41.6609C86.6978 42.0184 86.9682 42.3105 87.2976 42.3105C87.624 42.3105 87.8882 42.0184 87.8882 41.6609C87.8882 41.6392 87.2852 40.486 87.2852 40.486Z" fill="white"/>
<path d="M97.3033 40.486C97.3033 40.486 96.7158 41.4713 96.7158 41.6609C96.7158 42.0184 96.98 42.3105 97.3095 42.3105C97.6327 42.3105 97.9001 42.0184 97.9001 41.6609C97.9001 41.6392 97.3033 40.486 97.3033 40.486Z" fill="white"/>
<path d="M107.314 40.486C107.314 40.486 106.72 41.4713 106.72 41.6609C106.72 42.0184 106.991 42.3105 107.32 42.3105C107.653 42.3105 107.911 42.0184 107.911 41.6609C107.911 41.6392 107.314 40.486 107.314 40.486Z" fill="white"/>
<path d="M117.326 40.486C117.326 40.486 116.738 41.4713 116.738 41.6609C116.738 42.0184 117.002 42.3105 117.332 42.3105C117.658 42.3105 117.923 42.0184 117.923 41.6609C117.923 41.6392 117.326 40.486 117.326 40.486Z" fill="white"/>
<path d="M87.3094 54.2349C87.3094 54.2349 87.8906 55.2233 87.8906 55.4098C87.8906 55.7703 87.6327 56.0625 87.297 56.0625C86.9706 56.0625 86.7002 55.7703 86.7002 55.4098C86.7002 55.388 87.3094 54.2349 87.3094 54.2349Z" fill="white"/>
<path d="M87.3094 67.5923C87.3094 67.5923 87.8906 68.5776 87.8906 68.7672C87.8906 69.1215 87.6327 69.4199 87.297 69.4199C86.9706 69.4199 86.7002 69.1215 86.7002 68.7672C86.7002 68.7454 87.3094 67.5923 87.3094 67.5923Z" fill="white"/>
<path d="M88.9082 78.1649C88.9082 78.1649 89.4956 79.1533 89.4956 79.3336C89.4956 79.6942 89.2252 79.9863 88.8957 79.9863C88.5725 79.9863 88.3052 79.6942 88.3052 79.3336C88.3052 79.315 88.9082 78.1649 88.9082 78.1649Z" fill="white"/>
<path d="M97.3095 83.7814C97.3095 83.7814 97.897 84.7729 97.897 84.9594C97.897 85.3231 97.6328 85.6152 97.2971 85.6152C96.9707 85.6152 96.7065 85.3231 96.7065 84.9594C96.7065 84.9408 97.3095 83.7814 97.3095 83.7814Z" fill="white"/>
<path d="M127.849 54.2349C127.849 54.2349 127.261 55.2233 127.261 55.4098C127.261 55.7703 127.532 56.0625 127.861 56.0625C128.181 56.0625 128.452 55.7703 128.452 55.4098C128.452 55.388 127.849 54.2349 127.849 54.2349Z" fill="white"/>
<path d="M127.849 67.5923C127.849 67.5923 127.261 68.5776 127.261 68.7672C127.261 69.1215 127.532 69.4199 127.861 69.4199C128.181 69.4199 128.452 69.1215 128.452 68.7672C128.452 68.7454 127.849 67.5923 127.849 67.5923Z" fill="white"/>
<path d="M126.245 78.1649C126.245 78.1649 125.657 79.1533 125.657 79.3336C125.657 79.6942 125.921 79.9863 126.257 79.9863C126.583 79.9863 126.848 79.6942 126.848 79.3336C126.848 79.315 126.245 78.1649 126.245 78.1649Z" fill="white"/>
<path d="M117.845 83.7814C117.845 83.7814 117.257 84.7729 117.257 84.9594C117.257 85.3231 117.522 85.6152 117.851 85.6152C118.177 85.6152 118.448 85.3231 118.448 84.9594C118.448 84.9408 117.845 83.7814 117.845 83.7814Z" fill="white"/>
<path d="M107.623 89.745C107.623 89.745 107.035 90.7303 107.035 90.9168C107.035 91.2742 107.299 91.5664 107.635 91.5664C107.961 91.5664 108.226 91.2742 108.226 90.9168C108.226 90.895 107.623 89.745 107.623 89.745Z" fill="white"/>
<path d="M123.918 69.8203C124.042 70.0099 124.356 70.0721 124.76 69.9322L125.136 68.8568C125.164 68.7822 124.701 68.3564 124.424 68.4216C123.355 68.6765 122.221 68.8071 121.587 69.8203C121.587 70.5135 122.09 71.1506 122.597 71.4708C122.973 71.3402 123.035 71.7257 123.29 71.9153C123.355 72.2292 123.166 72.4841 122.842 72.4841C122.09 71.7257 120.769 72.7358 120.2 71.7847C120.455 70.8336 120.959 69.7551 120.135 68.8661C120.2 68.6765 120.517 68.4869 120.331 68.2973C120.017 67.4084 119.066 68.1077 118.497 68.1077C117.552 67.9772 116.794 68.4869 116.225 69.2453C116.287 69.5655 116.424 69.8856 116.735 70.1995C116.99 70.1374 117.111 70.1995 117.176 70.4544L116.542 70.8336C116.735 71.0294 116.735 71.2781 116.794 71.533C116.356 71.7257 115.914 71.0885 115.721 70.7683C115.721 70.2648 115.79 69.3727 115.097 69.2453C114.969 69.2453 114.547 69.4318 114.547 69.4318C114.394 69.6245 114.289 70.0193 114.289 70.4824C114.289 70.9331 114.534 71.6169 114.534 71.6169C114.534 71.6169 116.477 73.0591 116.918 73.9449C116.356 75.0825 116.356 76.6708 115.035 77.3049C114.652 77.5567 114.652 77.9359 114.652 78.3182L114.969 78.5762C115.79 78.1317 117.363 78.0012 117.241 76.6087C117.552 76.0368 117.869 75.4058 118.438 74.9582C119.066 74.8308 119.635 75.1478 119.89 75.6544C119.697 76.6087 119.066 77.2396 118.18 77.5567C118.059 77.6841 118.115 77.8737 118.115 78.0664C118.376 78.5109 119.066 78.3182 119.451 78.2591C120.517 77.5567 120.959 76.2885 121.907 75.9093C122.028 76.5434 120.648 76.7361 121.521 77.364C122.09 77.2396 122.842 77.4292 123.225 76.6708C122.783 75.5923 124.732 75.0825 123.542 74.1345C123.542 73.1834 124.546 72.8011 124.487 71.7847C124.104 70.7683 122.908 70.7683 122.597 69.8203C122.973 69.5655 123.542 69.6245 123.918 69.8203Z" fill="white"/>
<path d="M77.9026 81.3574C78.5958 81.3574 79.1553 80.8663 79.1553 80.2571C79.1553 79.651 78.5958 79.1568 77.9026 79.1568C77.2095 79.1568 76.6562 79.651 76.6562 80.2571C76.6562 80.8663 77.2095 81.3574 77.9026 81.3574Z" fill="white"/>
<path d="M12.9594 119.303C13.637 119.303 14.1933 118.774 14.1933 118.122C14.1933 117.469 13.637 116.937 12.9594 116.937C12.2787 116.937 11.7285 117.469 11.7285 118.122C11.7285 118.774 12.2787 119.303 12.9594 119.303Z" fill="white"/>
<path d="M54.1223 128.399C54.172 128.399 54.1938 128.392 54.1938 128.355C54.1938 128.318 54.1782 128.299 54.1471 128.299C54.1223 128.299 54.1223 128.312 54.1223 128.318V128.399ZM54.2963 128.514H54.2062L54.1347 128.414H54.1223V128.476C54.1223 128.507 54.1347 128.507 54.1534 128.507V128.514H54.0166V128.507C54.0508 128.507 54.057 128.507 54.057 128.476V128.333C54.057 128.299 54.0415 128.299 54.0166 128.296V128.293H54.1471C54.1782 128.293 54.2559 128.293 54.2559 128.355C54.2559 128.389 54.2186 128.399 54.2 128.405L54.2777 128.504C54.2901 128.507 54.2963 128.507 54.2963 128.507V128.514Z" fill="white"/>
<path d="M54.4665 128.359C54.4541 128.337 54.4355 128.297 54.3888 128.297C54.3702 128.297 54.3422 128.312 54.3422 128.328C54.3422 128.343 54.364 128.356 54.3888 128.368L54.4417 128.39C54.4541 128.399 54.4852 128.421 54.4852 128.455C54.4852 128.483 54.4603 128.523 54.3888 128.523C54.3484 128.523 54.3329 128.511 54.3173 128.511C54.3111 128.511 54.3111 128.52 54.3111 128.523H54.2925V128.443H54.3111C54.3173 128.471 54.336 128.511 54.3951 128.511C54.4417 128.511 54.4417 128.48 54.4417 128.471C54.4417 128.455 54.423 128.446 54.4013 128.44L54.3764 128.424C54.2987 128.399 54.2987 128.368 54.2987 128.352C54.2987 128.334 54.3111 128.287 54.3888 128.287C54.423 128.287 54.4417 128.3 54.4479 128.3C54.4603 128.3 54.4603 128.293 54.4665 128.287H54.479V128.359H54.4665Z" fill="white"/>
<path d="M54.8805 128.297C54.8681 128.3 54.8618 128.306 54.8556 128.319L54.7748 128.518H54.7624L54.7002 128.362L54.6225 128.518H54.6101L54.5293 128.319C54.523 128.303 54.5168 128.3 54.5044 128.297V128.291H54.6163V128.297C54.6039 128.3 54.5976 128.3 54.5976 128.312V128.322L54.6412 128.446H54.6474L54.6878 128.34L54.6785 128.309C54.6785 128.303 54.666 128.3 54.6474 128.297V128.291H54.7686V128.297C54.7499 128.3 54.7375 128.3 54.7375 128.309C54.7375 128.319 54.7437 128.322 54.7437 128.331L54.7904 128.443L54.837 128.325C54.837 128.322 54.8432 128.319 54.8432 128.312C54.8432 128.3 54.8152 128.3 54.809 128.297V128.291H54.8805V128.297Z" fill="white"/>
<path d="M54.9861 128.418C54.9924 128.418 55.0048 128.415 55.0048 128.412V128.384C55.0048 128.315 54.9986 128.293 54.9675 128.293C54.9488 128.293 54.9488 128.315 54.9488 128.343C54.9488 128.39 54.9613 128.418 54.9861 128.418ZM54.896 128.511C54.9364 128.499 54.9799 128.486 54.9986 128.424C54.9924 128.427 54.9924 128.427 54.9799 128.427C54.9675 128.43 54.9675 128.43 54.9613 128.43C54.9364 128.43 54.896 128.418 54.896 128.362C54.896 128.343 54.9084 128.287 54.9737 128.287C55.011 128.287 55.0638 128.309 55.0638 128.387C55.0638 128.443 55.011 128.511 54.896 128.523V128.511Z" fill="white"/>
<path d="M55.1207 128.358C55.1517 128.358 55.1797 128.361 55.1984 128.377C55.2263 128.383 55.245 128.405 55.245 128.439C55.245 128.479 55.1984 128.514 55.1331 128.514C55.102 128.514 55.0771 128.504 55.0771 128.489C55.0771 128.476 55.0834 128.467 55.0958 128.467C55.1269 128.467 55.1517 128.498 55.1797 128.498C55.1922 128.498 55.2139 128.492 55.2139 128.464C55.2139 128.442 55.1922 128.427 55.1735 128.42C55.1455 128.408 55.1144 128.405 55.0834 128.405L55.1269 128.29H55.2512L55.2326 128.333H55.1269L55.1207 128.358Z" fill="white"/>
<path d="M129.368 74.6833C129.123 77.3595 128.215 79.5819 126.369 80.8438L108.944 91.9215H108.845C108.481 92.2106 108.018 92.394 107.511 92.394C106.989 92.394 106.52 92.2012 106.147 91.8998L88.7532 80.8438C86.9007 79.5819 85.9931 77.3595 85.7537 74.6833V40.1355H129.368V74.6833ZM130.664 38.8985V38.8736H84.4514V38.8985H84.439L84.4794 74.214C84.4794 77.8133 86.0086 80.9619 88.1129 81.9348L105.889 93.2176C106.277 93.659 106.859 93.9512 107.511 93.9512C108.074 93.9512 108.574 93.7274 108.95 93.3855L127.003 81.9348C129.113 80.9619 130.633 77.8133 130.633 74.214L130.671 38.8985H130.664Z" fill="white"/>
<path d="M113.776 90.3711L114.339 90.1007C114.109 90.1846 113.932 90.2778 113.776 90.3711Z" fill="white"/>
<path d="M74.5213 136.454L72.8429 133.874L71.898 136.765L74.5213 136.454ZM78.9225 138.646L74.5586 139.146L74.5337 138.863C75.3636 138.714 75.6029 138.677 75.5625 138.301C75.5252 137.996 74.9937 137.21 74.7668 136.871L71.7425 137.225C71.4659 138.083 71.295 138.565 71.3229 138.748C71.3727 139.174 72.0223 139.134 72.473 139.102L72.5134 139.388L69.7875 139.699L69.7471 139.426C70.4651 139.245 70.6143 138.844 70.9158 137.952L73.1879 131.428L73.564 131.382L77.241 136.964C77.9901 138.102 78.2449 138.462 78.8914 138.363L78.9225 138.646Z" fill="white"/>
<path d="M153.73 124.632C153.136 125.841 152.207 126.702 150.88 126.904C150.945 125.303 152.409 124.169 151.878 122.363C151.014 121.091 149.295 120.694 147.7 121.026C147.1 121.43 147.365 122.095 147.169 122.698L146.905 124.899C145.577 124.899 145.506 123.699 145.108 122.764C145.183 121.362 145.773 119.96 147.169 119.289C148.232 118.754 149.954 118.822 151.014 119.425C151.878 119.627 152.875 120.025 153.205 120.83C154.19 121.76 153.932 123.429 153.73 124.632ZM148.365 125.303C149.093 124.566 148.16 120.358 150.221 123.099C150.221 123.634 150.286 124.433 149.755 124.834C149.422 125.098 148.891 125.632 148.365 125.303V125.303ZM149.093 126.972C149.158 128.038 148.16 127.771 147.632 128.178H146.037C145.705 127.64 145.842 126.838 145.842 126.304C146.905 126.503 148.095 126.503 149.093 126.972V126.972ZM150.945 135.122C150.417 135.787 150.88 136.853 150.221 137.456C150.221 138.659 149.217 139.259 148.365 139.725C140.474 141.463 132.709 138.793 125.088 137.456C114.408 135.122 101.944 134.451 91.0623 136.922C85.9586 137.857 80.9886 139.06 76.0838 140.462C73.0284 140.86 69.7151 141.329 66.7934 140.397C64.4125 139.259 65.4009 136.188 64.6767 134.05C64.8072 132.38 64.2073 131.047 64.1452 129.443C63.9431 128.909 63.8064 128.24 63.881 127.706C64.8756 127.836 65.8671 128.573 66.9301 128.84C72.5032 129.909 77.4794 128.11 82.6453 127.171C87.6184 126.102 92.7221 125.232 97.9594 124.834C103.933 124.772 110.032 124.433 115.735 125.434C117.591 125.505 119.182 125.968 120.976 126.102C124.69 126.574 128.134 127.578 131.91 127.836C132.517 128.038 133.247 128.038 133.9 128.178C139.874 129.111 146.569 130.777 152.272 128.178C152.272 130.578 151.281 132.781 150.945 135.122V135.122ZM117.258 139.996C117.591 140.928 118.185 141.798 117.849 142.936C117.19 144.198 115.866 144.198 114.675 144.471C114.072 144.537 113.606 144.335 113.146 143.999C113.218 143.735 113.081 143.533 112.882 143.334C113.081 142.463 111.359 141.596 112.549 140.86C113.606 139.859 116.13 137.59 117.258 139.996V139.996ZM118.716 140.263C119.512 140.462 119.577 141.329 119.649 141.997C119.577 143.467 118.781 144.736 117.395 145.27C116.662 145.677 115.53 145.805 114.803 145.541C116.397 145.475 118.116 144.866 118.781 143.269L118.716 140.263ZM120.444 149.143C120.314 149.211 120.314 149.345 120.314 149.407C118.387 149.479 117.122 148.341 115.664 147.34L115.599 147.011C117.395 147.144 118.85 148.279 120.444 149.143V149.143ZM117.986 155.285C117.92 155.487 117.591 155.487 117.46 155.356C115.474 152.814 114.539 150.15 113.277 147.34L113.547 147.278C115.135 149.886 116.397 152.749 117.986 155.285ZM114.675 153.687L114.34 153.818C114.013 153.554 114.144 152.814 114.209 152.419C114.604 152.749 114.94 153.218 114.675 153.687ZM112.814 149.681C112.882 150.346 113.547 150.61 113.146 151.219C113.009 150.949 112.615 150.346 112.814 149.681ZM112.425 145.27H112.549V145.472H112.425V145.27ZM108.574 155.089C107.312 155.161 105.388 155.891 104.198 154.822C104.266 154.284 103.666 154.02 103.731 153.488C104.791 153.084 105.718 154.356 106.718 153.417C108.238 153.488 109.827 153.218 111.359 153.554C112.086 153.753 113.218 152.351 113.345 153.753C112.814 155.959 110.165 154.418 108.574 155.089V155.089ZM105.655 147.144L105.991 146.607C105.46 148.211 104.655 149.886 103.797 151.415C103.396 149.811 105.056 148.54 105.655 147.144V147.144ZM107.505 145.87C108.375 144.931 109.165 146.408 109.5 147.144C110.498 148.612 113.081 149.945 112.086 151.953C110.821 153.084 108.835 152.018 107.446 152.882C106.718 152.814 105.46 153.019 105.056 152.282C105.783 150.15 106.451 147.744 107.505 145.87ZM107.312 143.334H107.051L107.446 142.936C107.642 143.066 107.384 143.197 107.312 143.334V143.334ZM108.835 143.467C109.106 143.066 109.432 142.463 109.895 142.463C109.895 142.535 109.96 142.6 110.032 142.672C109.637 143.001 109.301 143.334 108.835 143.467ZM109.764 144.471C109.895 144.335 110.228 144.335 110.361 144.471H109.764ZM111.555 146.538C111.49 146.675 111.623 146.874 111.418 147.011L109.895 145.805C110.629 145.677 111.16 146.004 111.555 146.538ZM111.418 142.672H111.353V142.47H111.418V142.672ZM114.209 138.323C113.413 138.594 112.814 139.526 112.027 139.725C112.425 138.989 113.413 138.258 114.209 138.323ZM110.893 137.456C110.753 136.853 111.49 137.322 111.754 137.058L113.808 137.195C112.745 137.058 111.418 139.526 110.893 137.456V137.456ZM106.056 139.324C106.386 138.392 106.451 137.59 107.051 136.853C107.704 136.853 108.31 136.853 108.835 137.124C108.969 138.46 110.629 140.263 108.835 141.397C108.238 141.665 107.384 142.268 106.718 141.665C105.854 140.928 105.718 140.263 106.056 139.324V139.324ZM105.056 143.467C104.993 143.197 105.192 142.871 105.251 142.535C105.587 142.199 105.92 142.802 106.056 143.001C105.854 143.334 105.46 143.533 105.056 143.467V143.467ZM104.993 140.397H104.928V139.663H104.993V140.397ZM104.198 138.392C103.327 138.193 102.87 137.195 101.944 137.195C102.734 136.922 103.532 136.99 104.456 137.124C104.791 137.59 104.266 137.991 104.198 138.392V138.392ZM103.464 143.8C103.666 142.936 104.061 141.798 104.527 140.996C104.456 141.867 104.061 143.066 103.464 143.8ZM102.013 143.8C100.884 143.669 99.8151 143.334 98.8266 143.001C98.1615 142.33 98.8266 141.596 98.8266 140.86C99.7529 139.393 102.401 138.659 103.666 139.996C103.464 141.463 102.939 142.734 102.013 143.8V143.8ZM102.606 145.606V145.87H102.469V145.606V145.541H102.734C102.668 145.541 102.538 145.541 102.469 145.606H102.606ZM100.946 149.479C100.026 151.617 98.9634 153.687 97.7015 155.754C97.5647 156.09 97.0332 156.155 96.6385 156.224C96.6385 155.285 97.5647 154.548 97.9594 153.753C99.3519 151.953 99.7529 150.016 101.341 148.279C101.742 148.677 100.946 148.947 100.946 149.479V149.479ZM94.6523 148.81C96.2437 148.139 97.8973 146.743 99.6845 147.34C98.4288 148.341 96.3711 148.742 94.6523 148.81ZM97.0332 144.198C96.6975 141.867 97.6362 139.859 99.153 138.193C100.085 137.991 101.142 137.792 102.013 138.323C100.284 138.793 98.0962 139.191 97.7015 141.397C97.7667 142.268 97.5025 142.734 97.8973 143.467C98.6246 144.736 100.284 144.198 101.211 145.205C101.211 145.541 100.946 145.935 100.611 146.004C99.4887 145.335 98.0962 145.068 97.0332 144.198V144.198ZM65.9355 122.764C66.1313 122.232 65.9355 121.43 66.6628 121.293C67.1291 121.163 67.8564 121.163 67.9248 121.697C67.8564 122.499 67.7973 123.298 67.5891 124.038C66.6628 124.1 66.1966 123.562 65.9355 122.764V122.764ZM66.1313 125.011C67.1291 125.741 68.5153 125.406 69.7151 125.611C69.914 126.344 69.914 127.277 69.3825 127.88C68.2573 127.609 66.7934 127.74 66.1966 126.677C66.3334 126.208 66.0039 125.542 66.1313 125.011V125.011ZM63.0169 123.099C63.2127 121.896 63.4769 120.625 64.6114 119.758C66.1966 118.888 68.391 119.096 69.8487 119.96C70.315 120.224 70.6476 120.625 70.9118 121.225C71.235 122.363 70.7097 123.562 69.914 124.237H69.252C69.252 123.161 69.252 122.095 69.6467 121.225C69.5845 120.426 68.9163 120.358 68.391 120.025C67.2596 119.693 66.2619 120.224 65.4009 120.694C64.7388 121.492 64.1452 122.499 64.5399 123.634C65.0061 124.367 64.6114 125.365 64.8756 126.167L64.6767 126.441C63.881 125.567 62.818 124.632 63.0169 123.099V123.099ZM125.237 151.487C126.819 152.198 130.018 152.898 132.315 153.156C132.106 154.066 130.487 153.215 130.677 154.489C128.622 153.693 126.232 153.293 124.709 151.686C124.836 151.627 124.973 151.421 125.237 151.487V151.487ZM83.8419 152.55L82.9095 151.686C83.3726 151.083 84.3672 151.415 85.1008 151.014C86.8227 150.476 88.8182 149.811 90.7266 150.209C88.7436 151.819 86.1638 152.018 83.8419 152.55V152.55ZM155.452 122.095C154.663 120.025 153.003 118.623 150.945 117.958C148.822 117.486 146.569 117.822 145.183 119.425C142.792 121.362 144.446 124.566 144.514 127.171C144.514 127.706 144.583 128.11 144.048 128.371C134.437 127.507 125.486 125.098 115.931 124.1C113.734 123.718 111.536 123.817 109.451 123.379L106.781 123.099C98.491 123.364 90.2044 123.833 82.4463 125.841C80.7928 126.369 78.9278 126.503 77.2743 127.103C76.0838 126.904 75.0892 127.771 73.9609 127.441L71.7727 127.951C71.5707 127.989 71.3314 127.976 71.0392 127.905C69.9793 125.166 73.1652 123.497 72.1675 120.83C71.3065 119.289 69.5845 117.822 67.5891 118.092C65.3294 117.822 63.3433 119.096 62.2865 120.83C60.7572 124.169 62.6874 127.64 63.2811 130.913C63.1474 131.979 64.3441 133.179 63.2811 134.05C61.1582 132.579 58.3732 131.777 55.7903 132.514C54.9915 132.915 53.5368 132.38 53.1421 133.319C55.9923 134.851 59.6351 134.649 62.818 134.516C63.2127 134.388 63.4769 134.317 63.8064 134.581C64.0861 136.319 63.4769 138.659 64.5399 140.191C65.7304 141.798 67.7258 142.199 69.6467 142.401C75.7512 142.199 81.1813 140.397 86.7574 138.989C87.6184 138.926 88.2805 138.46 89.2129 138.46C92.1937 137.792 95.4418 137.257 98.6246 137.195C97.2352 138.989 96.4395 140.996 95.8396 143.197C95.047 145.006 97.2352 145.27 97.8973 146.271C95.8396 146.874 94.3788 148.279 92.4579 149.084C88.2183 148.947 84.6345 150.548 80.656 151.014C80.5876 151.881 82.0516 151.617 82.179 152.481C81.9832 153.084 81.3833 153.156 80.9233 153.488C80.8612 153.886 80.9233 153.951 81.3181 154.02C81.719 153.554 82.58 153.886 82.9778 153.417C84.3051 153.417 85.4302 153.019 86.6922 152.951C87.8173 152.481 89.0762 152.419 90.0677 151.617C91.4664 151.219 92.3274 150.281 93.7167 149.886C95.706 149.886 97.5025 149.211 99.3519 149.084V149.479C97.8289 151.953 96.2437 154.489 94.6523 156.827C94.3788 157.29 94.7176 157.759 95.1123 157.89C96.0386 158.163 96.9648 157.89 97.7015 157.495C99.0877 155.089 100.347 152.814 101.475 150.346C101.944 148.074 103.601 146.874 105.251 145.335C105.519 145.205 105.92 144.801 106.187 145.205C104.857 146.743 104.002 148.211 103.007 149.886C102.469 151.751 102.333 154.15 104.002 155.689C104.791 156.36 105.991 156.155 107.051 156.224C109.637 154.89 112.95 157.022 114.94 154.489C116.13 154.284 116.326 155.689 116.994 156.36C118.116 156.69 119.313 157.827 120.444 157.022C120.376 156.292 119.577 155.617 119.182 154.952C118.387 153.554 117.395 152.419 116.662 151.145C116.326 150.209 115.735 149.612 115.599 148.677C116.792 149.084 117.849 149.886 119.182 150.082C120.314 150.548 121.709 150.476 122.769 151.145C123.63 152.282 124.951 152.951 126.086 153.687C127.739 154.489 129.595 154.623 131.32 155.285C131.985 155.356 132.973 155.891 133.443 155.285C133.169 154.952 132.843 154.753 132.448 154.548C132.243 153.687 133.642 154.15 134.102 153.488C133.94 153.156 133.651 153.025 133.337 152.975C132.38 152.475 130.024 152.292 129.393 151.953C128.597 151.819 127.867 151.484 127.077 151.219C123.099 151.219 120.904 147.608 117.728 146.271C118.449 145.606 119.577 145.068 120.05 144.07C120.646 143.132 120.839 141.596 120.245 140.533C119.649 138.46 116.994 138.724 115.474 137.59L115.664 137.388C118.25 137.257 120.51 137.857 122.834 138.323C129.194 139.191 135.096 141.596 141.732 141.73C145.378 141.73 149.954 141.926 151.741 138.392C152.077 136.319 152.471 134.252 152.804 132.182C153.6 128.84 155.791 125.769 155.452 122.095" fill="white"/>
</svg>
